<?xml version="1.0" encoding="UTF-8"?>
<svg version="1.1" xmlns="http://www.w3.org/2000/svg" width="153" height="201">
<path d="M0 0 C1.11563828 -0.02090698 1.11563828 -0.02090698 2.2538147 -0.04223633 C4.64079597 -0.07685417 7.02684071 -0.08967379 9.4140625 -0.09375 C10.22552734 -0.09576416 11.03699219 -0.09777832 11.87304688 -0.09985352 C23.88954391 -0.07960367 34.32966513 0.46658423 45.0390625 6.40625 C46.06128906 6.93992187 47.08351563 7.47359375 48.13671875 8.0234375 C66.4263901 18.86711617 80.21840183 36.93391621 86.46575928 57.1027832 C88.03701045 63.41589075 87.91970507 69.93053651 87.82128906 76.39697266 C87.7890634 78.90618024 87.821189 81.40895274 87.859375 83.91796875 C87.89090632 96.52678893 85.09859552 106.45883064 79.37036133 117.6730957 C77.91901361 120.65271017 77.61882108 122.80344674 77.4765625 126.09375 C77.30277377 129.90130303 77.21689535 131.13950072 75.0390625 134.40625 C73.7190625 134.40625 72.3990625 134.40625 71.0390625 134.40625 C71.04350372 135.15127274 71.04794495 135.89629547 71.05252075 136.66389465 C71.09258282 143.68254862 71.12303942 150.70116303 71.14268684 157.71989918 C71.15312732 161.32837105 71.16729123 164.93674849 71.18994141 168.54516602 C71.21166054 172.02701942 71.22362914 175.50878195 71.22881699 178.99069786 C71.23431477 180.96663283 71.24992918 182.94253122 71.26565552 184.91841125 C71.26580658 186.11942978 71.26595764 187.3204483 71.26611328 188.55786133 C71.2705545 189.61709305 71.27499573 190.67632477 71.27957153 191.76765442 C71.0390625 194.40625 71.0390625 194.40625 69.0390625 197.40625 C66.95570374 197.78377342 66.95570374 197.78377342 64.33227539 197.78720093 C63.3395462 197.7956604 62.34681702 197.80411987 61.32400513 197.81283569 C59.68442337 197.80372665 59.68442337 197.80372665 58.01171875 197.79443359 C56.28971756 197.80231903 56.28971756 197.80231903 54.53292847 197.81036377 C50.72233644 197.82361275 46.91215909 197.81480807 43.1015625 197.8046875 C40.46362223 197.80670682 37.8256825 197.80961706 35.18774414 197.81338501 C29.65278597 197.81884687 24.11794778 197.81163978 18.58300781 197.79736328 C12.17885631 197.78103582 5.7749913 197.78632403 -0.62915325 197.8028425 C-6.78333535 197.81808243 -12.93739015 197.81648775 -19.09158325 197.8076973 C-21.71355224 197.8056902 -24.3355285 197.80817229 -26.95748901 197.81513596 C-30.61639014 197.82272005 -34.27473431 197.81118835 -37.93359375 197.79443359 C-39.02664825 197.80050629 -40.11970276 197.80657898 -41.24588013 197.81283569 C-42.73497391 197.80014648 -42.73497391 197.80014648 -44.25415039 197.78720093 C-45.11988174 197.78606985 -45.9856131 197.78493877 -46.87757874 197.78377342 C-47.56508713 197.65919069 -48.25259552 197.53460796 -48.9609375 197.40625 C-51.27211913 193.93947756 -51.20511646 192.64293119 -51.18798828 188.55786133 C-51.18776169 186.75633354 -51.18776169 186.75633354 -51.18753052 184.91841125 C-51.17720795 183.62146835 -51.16688538 182.32452545 -51.15625 180.98828125 C-51.15251905 179.64735627 -51.14967247 178.30642856 -51.14767456 176.96549988 C-51.14004449 173.43910167 -51.12040153 169.91286866 -51.0982666 166.38653564 C-51.0777946 162.78701004 -51.06866995 159.18745769 -51.05859375 155.58789062 C-51.03715495 148.52727624 -51.00302663 141.46677391 -50.9609375 134.40625 C-51.6003125 134.2825 -52.2396875 134.15875 -52.8984375 134.03125 C-53.5790625 133.825 -54.2596875 133.61875 -54.9609375 133.40625 C-56.11768439 131.09275621 -56.02629801 129.72926821 -56.0859375 127.15625 C-56.6190646 120.93944586 -59.35279936 116.0859872 -62.26953125 110.703125 C-65.63577344 104.14167371 -66.28940793 98.6868021 -66.33203125 91.43359375 C-66.34105972 90.47409317 -66.3500882 89.51459259 -66.35939026 88.52601624 C-66.37386332 86.49792583 -66.38277216 84.46978905 -66.38647461 82.44165039 C-66.39830683 79.37758921 -66.44746745 76.31558611 -66.49804688 73.25195312 C-66.59003022 62.23993603 -66.20985269 53.31573197 -60.9609375 43.40625 C-60.63198486 42.73376221 -60.30303223 42.06127441 -59.96411133 41.3684082 C-50.03492386 22.21482466 -32.02495544 7.95133021 -11.80322266 1.38012695 C-7.81181121 0.36845201 -4.08887425 0.05148511 0 0 Z " fill="#8F7B89" transform="translate(65.9609375,1.59375)"/>
<path d="M0 0 C5.47731861 1.15446996 8.98706159 5.02271415 12.08496094 9.43945312 C14.22223454 13.8821005 14.42707861 18.57038552 14.08496094 23.43945312 C11.12426835 29.83384835 7.41212705 35.19870951 1.08496094 38.43945312 C5.72113312 38.53763089 10.2595528 38.52615923 14.87792969 38.04101562 C26.42953995 36.83225878 26.42953995 36.83225878 29.58496094 39.37695312 C30.40996094 40.38757813 31.23496094 41.39820313 32.08496094 42.43945312 C33.16651791 43.64937671 34.25001119 44.85757095 35.33496094 46.06445312 C35.91375 46.7425 36.49253906 47.42054687 37.08886719 48.11914062 C39.43898126 50.85097577 41.85002618 53.52157344 44.27246094 56.18945312 C45.50029297 57.54296875 45.50029297 57.54296875 46.75292969 58.92382812 C49.00191434 61.44810374 49.00191434 61.44810374 51.44824219 63.45507812 C53.08496094 65.43945312 53.08496094 65.43945312 53.07324219 68.00976562 C51.89021597 70.91823325 50.93231003 71.69458107 48.27246094 73.31445312 C47.47066406 73.80945313 46.66886719 74.30445312 45.84277344 74.81445312 C44.93269531 75.35070312 44.02261719 75.88695313 43.08496094 76.43945312 C42.03050781 77.07882813 40.97605469 77.71820313 39.88964844 78.37695312 C31.41812626 83.43945312 31.41812626 83.43945312 29.08496094 83.43945312 C30.08496094 81.43945312 31.08496094 79.43945312 32.08496094 77.43945312 C31.42496094 77.43945312 30.76496094 77.43945312 30.08496094 77.43945312 C30.08496094 76.77945313 30.08496094 76.11945313 30.08496094 75.43945312 C25.72964777 75.46235928 21.37692539 75.53981915 17.02246094 75.62695312 C15.79333984 75.63275391 14.56421875 75.63855469 13.29785156 75.64453125 C5.78399325 75.82680814 1.76263995 76.47445349 -3.91503906 81.43945312 C-7.04369614 81.43945312 -8.25415038 81.04950422 -10.54003906 78.93945312 C-10.99378906 78.44445312 -11.44753906 77.94945313 -11.91503906 77.43945312 C-15.21238552 76.34033764 -17.64462651 76.32550753 -21.11425781 76.34179688 C-22.32275391 76.34501953 -23.53125 76.34824219 -24.77636719 76.3515625 C-26.03900391 76.35994141 -27.30164062 76.36832031 -28.60253906 76.37695312 C-29.87677734 76.38146484 -31.15101562 76.38597656 -32.46386719 76.390625 C-35.6143047 76.40242439 -38.76464855 76.41888715 -41.91503906 76.43945312 C-41.42003906 77.20257813 -40.92503906 77.96570313 -40.41503906 78.75195312 C-38.91503906 81.43945312 -38.91503906 81.43945312 -38.91503906 84.43945312 C-48.15503906 84.43945312 -57.39503906 84.43945312 -66.91503906 84.43945312 C-67.80251099 87.98934083 -68.02049373 90.58126091 -67.97753906 94.18945312 C-67.96400391 95.66671875 -67.96400391 95.66671875 -67.95019531 97.17382812 C-67.93859375 97.92148438 -67.92699219 98.66914062 -67.91503906 99.43945312 C-66.26503906 99.43945312 -64.61503906 99.43945312 -62.91503906 99.43945312 C-62.91503906 120.22945313 -62.91503906 141.01945313 -62.91503906 162.43945312 C-25.29503906 162.43945312 12.32496094 162.43945312 51.08496094 162.43945312 C51.08496094 141.64945313 51.08496094 120.85945312 51.08496094 99.43945312 C53.06496094 99.43945312 55.04496094 99.43945312 57.08496094 99.43945312 C57.03855469 98.55902344 56.99214844 97.67859375 56.94433594 96.77148438 C56.90824219 95.61003906 56.87214844 94.44859375 56.83496094 93.25195312 C56.78855469 92.10339844 56.74214844 90.95484375 56.69433594 89.77148438 C57.16797097 85.73137751 58.43747459 84.4556965 61.08496094 81.43945312 C69.60802099 66.36771161 69.90097965 44.14930445 66.45361328 27.36572266 C65.37244029 23.66842921 64.00300529 20.39992419 62.29980469 16.93945312 C61.89890625 16.11445312 61.49800781 15.28945313 61.08496094 14.43945312 C61.41496094 13.77945313 61.74496094 13.11945312 62.08496094 12.43945312 C63.03044293 14.24780218 63.96588548 16.06140096 64.89746094 17.87695312 C65.68056641 19.39095703 65.68056641 19.39095703 66.47949219 20.93554688 C69.74709231 28.06702451 71.55419068 34.43008209 71.58886719 42.28710938 C71.59885239 43.10207382 71.60883759 43.91703827 71.61912537 44.75669861 C71.63420812 46.47178127 71.64135424 48.1869507 71.64086914 49.90209961 C71.64738687 52.4727423 71.70184331 55.03942071 71.75878906 57.609375 C71.88890878 70.43102972 69.24699318 80.29920463 63.41552734 91.70458984 C61.96558097 94.68482824 61.66471856 96.83667197 61.52246094 100.12695312 C61.34867221 103.93450616 61.26279379 105.17270385 59.08496094 108.43945312 C57.76496094 108.43945312 56.44496094 108.43945312 55.08496094 108.43945312 C55.08940216 109.18447586 55.09384338 109.9294986 55.09841919 110.69709778 C55.13848126 117.71575175 55.16893786 124.73436615 55.18858528 131.7531023 C55.19902576 135.36157417 55.21318967 138.96995162 55.23583984 142.57836914 C55.25755897 146.06022254 55.26952757 149.54198508 55.27471542 153.02390099 C55.2802132 154.99983596 55.29582762 156.97573434 55.31155396 158.95161438 C55.31170502 160.1526329 55.31185608 161.35365143 55.31201172 162.59106445 C55.31645294 163.65029617 55.32089417 164.70952789 55.32546997 165.80085754 C55.08496094 168.43945312 55.08496094 168.43945312 53.08496094 171.43945312 C51.00160217 171.81697655 51.00160217 171.81697655 48.37817383 171.82040405 C47.38544464 171.82886353 46.39271545 171.837323 45.36990356 171.84603882 C43.73032181 171.83692978 43.73032181 171.83692978 42.05761719 171.82763672 C40.335616 171.83552216 40.335616 171.83552216 38.5788269 171.84356689 C34.76823487 171.85681588 30.95805752 171.8480112 27.14746094 171.83789062 C24.50952066 171.83990994 21.87158093 171.84282019 19.23364258 171.84658813 C13.6986844 171.85204999 8.16384622 171.8448429 2.62890625 171.83056641 C-3.77524525 171.81423894 -10.17911026 171.81952715 -16.58325481 171.83604562 C-22.73743691 171.85128556 -28.89149172 171.84969088 -35.04568481 171.84090042 C-37.66765381 171.83889333 -40.28963006 171.84137541 -42.91159058 171.84833908 C-46.5704917 171.85592317 -50.22883587 171.84439147 -53.88769531 171.82763672 C-54.98074982 171.83370941 -56.07380432 171.8397821 -57.19998169 171.84603882 C-58.68907547 171.83334961 -58.68907547 171.83334961 -60.20825195 171.82040405 C-61.07398331 171.81927298 -61.93971466 171.8181419 -62.8316803 171.81697655 C-63.51918869 171.69239382 -64.20669708 171.56781109 -64.91503906 171.43945312 C-67.22622069 167.97268068 -67.15921802 166.67613431 -67.14208984 162.59106445 C-67.14186325 160.78953667 -67.14186325 160.78953667 -67.14163208 158.95161438 C-67.13130951 157.65467148 -67.12098694 156.35772858 -67.11035156 155.02148438 C-67.10662061 153.68055939 -67.10377403 152.33963169 -67.10177612 150.998703 C-67.09414606 147.4723048 -67.07450309 143.94607178 -67.05236816 140.41973877 C-67.03189616 136.82021316 -67.02277152 133.22066082 -67.01269531 129.62109375 C-66.99125651 122.56047937 -66.9571282 115.49997704 -66.91503906 108.43945312 C-67.55441406 108.31570312 -68.19378906 108.19195312 -68.85253906 108.06445312 C-69.87347656 107.75507813 -69.87347656 107.75507813 -70.91503906 107.43945312 C-72.07178596 105.12595934 -71.98039957 103.76247133 -72.04003906 101.18945312 C-72.57316616 94.97264898 -75.30690092 90.11919032 -78.22363281 84.73632812 C-81.589875 78.17487683 -82.24350949 72.72000523 -82.28613281 65.46679688 C-82.29516129 64.5072963 -82.30418976 63.54779572 -82.31349182 62.55921936 C-82.32796488 60.53112896 -82.33687372 58.50299218 -82.34057617 56.47485352 C-82.35240839 53.41079233 -82.40156901 50.34878923 -82.45214844 47.28515625 C-82.56406797 33.77730848 -81.12056973 24.12948026 -73.91503906 12.43945312 C-73.58503906 13.09945312 -73.25503906 13.75945313 -72.91503906 14.43945312 C-73.65722656 16.64648438 -73.65722656 16.64648438 -74.79003906 19.25195312 C-76.32221583 22.79310293 -77.14029682 25.56574189 -77.91503906 29.43945312 C-60.09503906 29.43945312 -42.27503906 29.43945312 -23.91503906 29.43945312 C-23.91503906 23.49945313 -23.91503906 17.55945312 -23.91503906 11.43945312 C-20.80298285 5.97606555 -20.80298285 5.97606555 -17.91503906 3.43945312 C-17.52058594 2.89675781 -17.12613281 2.3540625 -16.71972656 1.79492188 C-12.44626372 -1.41480022 -5.13522193 -0.53023116 0 0 Z " fill="#9DD0EF" transform="translate(81.9150390625,27.560546875)"/>
<path d="M0 0 C1.11563828 -0.02090698 1.11563828 -0.02090698 2.2538147 -0.04223633 C4.64079597 -0.07685417 7.02684071 -0.08967379 9.4140625 -0.09375 C10.22552734 -0.09576416 11.03699219 -0.09777832 11.87304688 -0.09985352 C23.88954391 -0.07960367 34.32966513 0.46658423 45.0390625 6.40625 C46.06128906 6.93992187 47.08351563 7.47359375 48.13671875 8.0234375 C64.90313776 17.96400213 78.45253822 34.09652455 83.39892578 52.97802734 C84.69623973 59.92573234 84.72618248 66.9189989 84.7265625 73.96875 C84.7315979 74.70009155 84.7366333 75.43143311 84.74182129 76.18493652 C84.76372628 85.27143438 83.81029653 93.01014547 80.0390625 101.40625 C79.79188477 102.07841553 79.54470703 102.75058105 79.29003906 103.44311523 C77.68584646 107.72608193 75.43130267 110.38073849 72.0390625 113.40625 C72.0390625 112.41625 72.0390625 111.42625 72.0390625 110.40625 C64.1190625 110.40625 56.1990625 110.40625 48.0390625 110.40625 C50.28783389 105.90870721 50.28783389 105.90870721 53.6640625 104.1171875 C54.37046875 103.73304687 55.076875 103.34890625 55.8046875 102.953125 C56.54203125 102.56640625 57.279375 102.1796875 58.0390625 101.78125 C59.49893629 101.00026857 60.95733962 100.21653051 62.4140625 99.4296875 C63.06117188 99.08856934 63.70828125 98.74745117 64.375 98.39599609 C66.21604092 97.39345037 66.21604092 97.39345037 68.0390625 95.40625 C68.25696969 92.522275 68.25696969 92.522275 67.0390625 89.40625 C65.47119258 87.77213206 63.78642594 86.43128108 62.00390625 85.03515625 C57.97479104 81.69491561 54.77313267 77.49646172 51.44140625 73.48046875 C50.93738281 72.87847656 50.43335937 72.27648437 49.9140625 71.65625 C49.47835937 71.12515625 49.04265625 70.5940625 48.59375 70.046875 C44.43915478 65.57226267 44.43915478 65.57226267 38.65625 64.234375 C36.80386719 64.44320312 36.80386719 64.44320312 34.9140625 64.65625 C28.5800438 65.27162571 22.39834375 65.52523863 16.0390625 65.40625 C21.0390625 60.40625 21.0390625 60.40625 23.1015625 58.53125 C27.71115304 53.47557006 29.40719642 50.19504375 29.1015625 43.34375 C28.40743555 37.72763198 27.20068362 35.18954193 23.0390625 31.40625 C22.33265625 30.70628906 21.62625 30.00632812 20.8984375 29.28515625 C17.03168119 26.74429589 14.06709318 26.77727632 9.5390625 26.84375 C8.79269531 26.81990234 8.04632813 26.79605469 7.27734375 26.77148438 C3.19569868 26.7823206 1.50519913 27.04192068 -1.8046875 29.62890625 C-9.05274845 38.96472389 -7.14064629 40.6410082 -7.9609375 55.40625 C-25.7809375 55.40625 -43.6009375 55.40625 -61.9609375 55.40625 C-60.36403095 44.22790418 -57.68774808 35.73548988 -49.9609375 27.40625 C-49.46239258 26.86677734 -48.96384766 26.32730469 -48.45019531 25.77148438 C-35.28959332 11.6790902 -20.12339289 0.25338395 0 0 Z " fill="#A5D1EF" transform="translate(65.9609375,1.59375)"/>
<path d="M0 0 C2.6415242 0.13262883 4.70802059 0.68879326 7.24707031 1.51098633 C11.29277119 2.67559526 15.24336101 2.77188448 19.4296875 2.73046875 C20.5765654 2.72978142 20.5765654 2.72978142 21.74661255 2.7290802 C23.34834361 2.72607917 24.95007231 2.71825804 26.55175781 2.70581055 C29.01377567 2.68739697 31.47542003 2.68530223 33.9375 2.68554688 C35.49739911 2.68063675 37.05729567 2.67481065 38.6171875 2.66796875 C39.72487991 2.66629951 39.72487991 2.66629951 40.85494995 2.66459656 C44.27876415 2.9370511 44.27876415 2.9370511 47.125 1.5 C59.59065165 -0.43671037 59.59065165 -0.43671037 64.20703125 1.26953125 C65.625 2.4375 65.625 2.4375 68.125 5.5 C69.20655697 6.70992358 70.29005025 7.91811782 71.375 9.125 C71.95378906 9.80304688 72.53257813 10.48109375 73.12890625 11.1796875 C75.47902032 13.91152264 77.89006524 16.58212031 80.3125 19.25 C81.54033203 20.60351562 81.54033203 20.60351562 82.79296875 21.984375 C85.0419534 24.50865061 85.0419534 24.50865061 87.48828125 26.515625 C89.125 28.5 89.125 28.5 89.11328125 31.0703125 C87.93025503 33.97878012 86.97234909 34.75512794 84.3125 36.375 C83.51070313 36.87 82.70890625 37.365 81.8828125 37.875 C80.97273438 38.41125 80.06265625 38.9475 79.125 39.5 C78.07054688 40.139375 77.01609375 40.77875 75.9296875 41.4375 C67.45816532 46.5 67.45816532 46.5 65.125 46.5 C66.125 44.5 67.125 42.5 68.125 40.5 C67.465 40.5 66.805 40.5 66.125 40.5 C66.125 39.84 66.125 39.18 66.125 38.5 C61.76968683 38.52290615 57.41696445 38.60036603 53.0625 38.6875 C51.83337891 38.69330078 50.60425781 38.69910156 49.33789062 38.70507812 C41.82403231 38.88735501 37.80267901 39.53500036 32.125 44.5 C28.99634292 44.5 27.78588868 44.11005109 25.5 42 C25.04625 41.505 24.5925 41.01 24.125 40.5 C20.82765354 39.40088451 18.39541255 39.3860544 14.92578125 39.40234375 C13.71728516 39.40556641 12.50878906 39.40878906 11.26367188 39.41210938 C10.00103516 39.42048828 8.73839844 39.42886719 7.4375 39.4375 C6.16326172 39.44201172 4.88902344 39.44652344 3.57617188 39.45117188 C0.42573436 39.46297127 -2.72460949 39.47943403 -5.875 39.5 C-5.38 40.263125 -4.885 41.02625 -4.375 41.8125 C-2.875 44.5 -2.875 44.5 -2.875 47.5 C-8.49361508 46.95578859 -12.99709805 45.44020946 -18.125 43.125 C-18.83140625 42.82078125 -19.5378125 42.5165625 -20.265625 42.203125 C-23.67268179 40.69317938 -26.51439827 39.41608905 -28.875 36.5 C-29.46669247 32.55538352 -29.82142701 30.03636652 -27.703125 26.59765625 C-26.17296505 24.79538022 -24.57840534 23.13882125 -22.875 21.5 C-22.029375 20.654375 -21.18375 19.80875 -20.3125 18.9375 C-19.508125 18.133125 -18.70375 17.32875 -17.875 16.5 C-16.97092665 15.40256992 -16.07509916 14.29829661 -15.1875 13.1875 C-14.0428125 11.8571875 -14.0428125 11.8571875 -12.875 10.5 C-12.215 10.5 -11.555 10.5 -10.875 10.5 C-10.648125 9.96375 -10.42125 9.4275 -10.1875 8.875 C-5.68852834 0.73400366 -5.68852834 0.73400366 0 0 Z " fill="#031A99" transform="translate(45.875,64.5)"/>
<path d="M0 0 C0.33 0.66 0.66 1.32 1 2 C0.02672787 4.00287512 -0.9541385 6.00205918 -1.9375 8 C-8.2501589 22.93575096 -7.8968349 47.05296404 -2.3125 62.1875 C-0.68944747 66.05850126 1.14985535 69.24876924 3.6875 72.5546875 C6.0415414 75.74212797 6.56129683 77.90699139 6.3125 81.9375 C6.26738281 82.89527344 6.22226563 83.85304688 6.17578125 84.83984375 C6.11777344 85.55269531 6.05976563 86.26554687 6 87 C7.65 87 9.3 87 11 87 C11 107.79 11 128.58 11 150 C48.62 150 86.24 150 125 150 C125 129.21 125 108.42 125 87 C126.98 87 128.96 87 131 87 C130.95359375 86.11957031 130.9071875 85.23914063 130.859375 84.33203125 C130.82328125 83.17058594 130.7871875 82.00914063 130.75 80.8125 C130.70359375 79.66394531 130.6571875 78.51539062 130.609375 77.33203125 C131.08301004 73.29192438 132.35251365 72.01624337 135 69 C143.52306005 53.92825849 143.81601871 31.70985133 140.36865234 14.92626953 C139.28747935 11.22897608 137.91804435 7.96047106 136.21484375 4.5 C135.81394531 3.675 135.41304687 2.85 135 2 C135.33 1.34 135.66 0.68 136 0 C136.94548199 1.80834905 137.88092454 3.62194783 138.8125 5.4375 C139.33457031 6.44683594 139.85664063 7.45617188 140.39453125 8.49609375 C143.66213137 15.62757138 145.46922974 21.99062897 145.50390625 29.84765625 C145.51389145 30.6626207 145.52387665 31.47758514 145.53416443 32.31724548 C145.54924719 34.03232815 145.5563933 35.74749757 145.5559082 37.46264648 C145.56242594 40.03328917 145.61688238 42.59996759 145.67382812 45.16992188 C145.80394785 57.9915766 143.16203224 67.85975151 137.33056641 79.26513672 C135.88062004 82.24537511 135.57975762 84.39721884 135.4375 87.6875 C135.26371127 91.49505303 135.17783285 92.73325072 133 96 C131.68 96 130.36 96 129 96 C129.00444122 96.74502274 129.00888245 97.49004547 129.01345825 98.25764465 C129.05352032 105.27629862 129.08397692 112.29491303 129.10362434 119.31364918 C129.11406482 122.92212105 129.12822873 126.53049849 129.15087891 130.13891602 C129.17259804 133.62076942 129.18456664 137.10253195 129.18975449 140.58444786 C129.19525227 142.56038283 129.21086668 144.53628122 129.22659302 146.51216125 C129.22674408 147.71317978 129.22689514 148.9141983 129.22705078 150.15161133 C129.231492 151.21084305 129.23593323 152.27007477 129.24050903 153.36140442 C129 156 129 156 127 159 C124.91664124 159.37752342 124.91664124 159.37752342 122.29321289 159.38095093 C121.3004837 159.3894104 120.30775452 159.39786987 119.28494263 159.40658569 C117.64536087 159.39747665 117.64536087 159.39747665 115.97265625 159.38818359 C114.25065506 159.39606903 114.25065506 159.39606903 112.49386597 159.40411377 C108.68327394 159.41736275 104.87309659 159.40855807 101.0625 159.3984375 C98.42455973 159.40045682 95.78662 159.40336706 93.14868164 159.40713501 C87.61372347 159.41259687 82.07888528 159.40538978 76.54394531 159.39111328 C70.13979381 159.37478582 63.7359288 159.38007403 57.33178425 159.3965925 C51.17760215 159.41183243 45.02354735 159.41023775 38.86935425 159.4014473 C36.24738526 159.3994402 33.625409 159.40192229 31.00344849 159.40888596 C27.34454736 159.41647005 23.68620319 159.40493835 20.02734375 159.38818359 C18.93428925 159.39425629 17.84123474 159.40032898 16.71505737 159.40658569 C15.22596359 159.39389648 15.22596359 159.39389648 13.70678711 159.38095093 C12.84105576 159.37981985 11.9753244 159.37868877 11.08335876 159.37752342 C10.39585037 159.25294069 9.70834198 159.12835796 9 159 C6.68881837 155.53322756 6.75582104 154.23668119 6.77294922 150.15161133 C6.77317581 148.35008354 6.77317581 148.35008354 6.77340698 146.51216125 C6.78372955 145.21521835 6.79405212 143.91827545 6.8046875 142.58203125 C6.80841845 141.24110627 6.81126503 139.90017856 6.81326294 138.55924988 C6.82089301 135.03285167 6.84053597 131.50661866 6.8626709 127.98028564 C6.8831429 124.38076004 6.89226755 120.78120769 6.90234375 117.18164062 C6.92378255 110.12102624 6.95791087 103.06052391 7 96 C6.360625 95.87625 5.72125 95.7525 5.0625 95.625 C4.0415625 95.315625 4.0415625 95.315625 3 95 C1.84325311 92.68650621 1.93463949 91.32301821 1.875 88.75 C1.3418729 82.53319586 -1.39186186 77.6797372 -4.30859375 72.296875 C-7.67483594 65.73542371 -8.32847043 60.2805521 -8.37109375 53.02734375 C-8.38012222 52.06784317 -8.3891507 51.10834259 -8.39845276 50.11976624 C-8.41292582 48.09167583 -8.42183466 46.06353905 -8.42553711 44.03540039 C-8.43736933 40.97133921 -8.48652995 37.90933611 -8.53710938 34.84570312 C-8.64902891 21.33785535 -7.20553066 11.69002714 0 0 Z " fill="#020202" transform="translate(8,40)"/>
<path d="M0 0 C1.11563828 -0.02090698 1.11563828 -0.02090698 2.2538147 -0.04223633 C4.64079597 -0.07685417 7.02684071 -0.08967379 9.4140625 -0.09375 C10.22552734 -0.09576416 11.03699219 -0.09777832 11.87304688 -0.09985352 C33.00349314 -0.06424511 48.36744972 5.26985752 63.7109375 20.64453125 C65.0390625 22.40625 65.0390625 22.40625 65.0390625 25.40625 C28.4090625 25.40625 -8.2209375 25.40625 -45.9609375 25.40625 C-40.38811305 14.2606011 -28.76142832 7.54229909 -17.4453125 3.23046875 C-11.55819715 1.27735344 -6.21231555 0.07822245 0 0 Z " fill="#CEE8F8" transform="translate(65.9609375,1.59375)"/>
<path d="M0 0 C0.66 0 1.32 0 2 0 C2 0.66 2 1.32 2 2 C16.85 2 31.7 2 47 2 C45 6 45 6 42 11 C41.67 16.94 41.34 22.88 41 29 C23.18 29 5.36 29 -13 29 C-11.34771047 17.43397328 -8.39012859 8.39012859 0 0 Z " fill="#82C2EB" transform="translate(17,28)"/>
<path d="M0 0 C2.64 0 5.28 0 8 0 C8.33 3.3 8.66 6.6 9 10 C9.33 6.7 9.66 3.4 10 0 C15.94 0 21.88 0 28 0 C28.33 0.66 28.66 1.32 29 2 C29.33 1.34 29.66 0.68 30 0 C32.31 0 34.62 0 37 0 C36.86722656 0.66644531 36.73445313 1.33289063 36.59765625 2.01953125 C36.02518738 5.00723372 35.50376559 7.99996312 35 11 C34.84789062 11.86367187 34.69578125 12.72734375 34.5390625 13.6171875 C33.53617268 20.94942642 34.77253993 27.44394203 36.30859375 34.59375 C37 38 37 38 37 41 C34.66705225 41.04241723 32.33297433 41.04092937 30 41 C29.505 40.505 29.505 40.505 29 40 C28.67 40.66 28.34 41.32 28 42 C25.03 42 22.06 42 19 42 C18.67 31.11 18.34 20.22 18 9 C17.0568438 16.91212489 17.0568438 16.91212489 16.11547852 24.82446289 C15.74959179 27.88373051 15.377183 30.94210524 15 34 C14.9057373 34.77069824 14.81147461 35.54139648 14.71435547 36.33544922 C14.12101337 40.87898663 14.12101337 40.87898663 13 42 C10.32941149 42.14115161 7.67567762 42.04247107 5 42 C4.28035731 37.30547981 3.56857286 32.60985697 2.86376953 27.91308594 C2.62336748 26.31836524 2.38089142 24.72395567 2.13623047 23.12988281 C1.78315668 20.82697705 1.43777385 18.52302298 1.09375 16.21875 C0.9843811 15.51633179 0.87501221 14.81391357 0.7623291 14.09020996 C0.06411363 9.34655933 -0.09402476 4.795263 0 0 Z " fill="#F7F5F6" transform="translate(54,133)"/>
<path d="M0 0 C5.47731861 1.15446996 8.98706159 5.02271415 12.08496094 9.43945312 C14.22151505 13.88060494 14.43263299 18.57204445 14.08496094 23.43945312 C12.72949219 26.32617188 12.72949219 26.32617188 10.89746094 29.12695312 C10.30578125 30.05894531 9.71410156 30.9909375 9.10449219 31.95117188 C6.03767751 35.72981975 3.62688304 37.2371442 -1.21972656 37.87304688 C-13.38645413 37.88635839 -13.38645413 37.88635839 -18.91503906 33.43945312 C-24.18775081 27.61171909 -24.4967892 22.92839802 -24.33691406 15.22851562 C-23.74176157 9.88316453 -21.74301577 7.05321216 -17.91503906 3.43945312 C-17.52058594 2.89289062 -17.12613281 2.34632812 -16.71972656 1.78320312 C-12.43273439 -1.40884299 -5.13730479 -0.53044622 0 0 Z " fill="#031B99" transform="translate(81.9150390625,27.560546875)"/>
<path d="M0 0 C19.8 0.495 19.8 0.495 40 1 C40.0825 4.733125 40.165 8.46625 40.25 12.3125 C40.28641602 13.46532471 40.32283203 14.61814941 40.36035156 15.8059082 C40.43962035 23.32046152 38.95765087 29.12846527 36 36 C35.7522583 36.67699951 35.5045166 37.35399902 35.24926758 38.05151367 C33.63950068 42.32572234 31.38800625 44.9782647 28 48 C28 47.01 28 46.02 28 45 C20.08 45 12.16 45 4 45 C6.24877139 40.50245721 6.24877139 40.50245721 9.625 38.7109375 C10.68460938 38.13472656 10.68460938 38.13472656 11.765625 37.546875 C12.50296875 37.16015625 13.2403125 36.7734375 14 36.375 C15.45987379 35.59401857 16.91827712 34.81028051 18.375 34.0234375 C19.02210938 33.68231934 19.66921875 33.34120117 20.3359375 32.98974609 C22.17697842 31.98720037 22.17697842 31.98720037 24 30 C24.21790719 27.116025 24.21790719 27.116025 23 24 C21.43213008 22.36588206 19.74736344 21.02503108 17.96484375 19.62890625 C14.55854058 16.80499289 11.83766278 13.37910188 9 10 C7.91803854 8.72799848 6.83478213 7.45709686 5.75 6.1875 C5.06164062 5.37345703 5.06164062 5.37345703 4.359375 4.54296875 C2.97198455 2.96820086 1.48403945 1.48403945 0 0 Z " fill="#80C0EB" transform="translate(110,67)"/>
<path d="M0 0 C0.74389481 -0.01384735 1.48778961 -0.0276947 2.25422668 -0.04196167 C4.64105489 -0.07635468 7.02699824 -0.08913303 9.4140625 -0.09375 C10.22453033 -0.09642883 11.03499817 -0.09910767 11.87002563 -0.10186768 C27.07384572 -0.0909252 42.3373287 1.33794339 54.0390625 12.40625 C54.0390625 13.06625 54.0390625 13.72625 54.0390625 14.40625 C24.3390625 14.40625 -5.3609375 14.40625 -35.9609375 14.40625 C-25.25278186 5.83972549 -13.97354337 0.17574246 0 0 Z " fill="#F1F8FD" transform="translate(65.9609375,1.59375)"/>
<path d="M0 0 C3.3 0 6.6 0 10 0 C10.33 4.62 10.66 9.24 11 14 C11.66 14 12.32 14 13 14 C12.98839844 13.24074219 12.97679688 12.48148438 12.96484375 11.69921875 C12.95582031 10.70535156 12.94679688 9.71148437 12.9375 8.6875 C12.92589844 7.70136719 12.91429688 6.71523437 12.90234375 5.69921875 C13 3 13 3 14 0 C17.3 0 20.6 0 24 0 C24 13.86 24 27.72 24 42 C21.69 42 19.38 42 17 42 C16.505 37.05 16.505 37.05 16 32 C15.67 34.97 15.34 37.94 15 41 C12.525 41.495 12.525 41.495 10 42 C9.34 38.04 8.68 34.08 8 30 C7.67 33.96 7.34 37.92 7 42 C4.69 42 2.38 42 0 42 C0 28.14 0 14.28 0 0 Z " fill="#FCFBFC" transform="translate(94,133)"/>
<path d="M0 0 C4.90025997 3.85524776 8.76150273 7.6362389 12 13 C11.67 13.99 11.34 14.98 11 16 C-4.18 15.67 -19.36 15.34 -35 15 C-35 16.65 -35 18.3 -35 20 C-35.33 20 -35.66 20 -36 20 C-36.144375 18.845 -36.28875 17.69 -36.4375 16.5 C-37.73297805 11.66354861 -40.13169158 8.69429181 -43.94921875 5.5078125 C-50.15054532 2.44288029 -57.28048998 3.13342471 -64 4 C-64.99 4.66 -65.98 5.32 -67 6 C-69.06913757 6.20254517 -69.06913757 6.20254517 -71.47143555 6.13525391 C-72.37214279 6.11508209 -73.27285004 6.09491028 -74.20085144 6.0741272 C-75.65410576 6.02583267 -75.65410576 6.02583267 -77.13671875 5.9765625 C-78.13129593 5.95153656 -79.12587311 5.92651062 -80.15058899 5.90072632 C-83.32990458 5.81849847 -86.5086016 5.7219191 -89.6875 5.625 C-91.84177154 5.56676333 -93.99606852 5.50945999 -96.15039062 5.453125 C-101.43393686 5.31291565 -106.71704615 5.16091863 -112 5 C-112.33 4.01 -112.66 3.02 -113 2 C-110.61500887 0.80750444 -109.20569514 0.89068707 -106.54550171 0.91770935 C-105.14042107 0.92826859 -105.14042107 0.92826859 -103.70695496 0.93904114 C-102.16084282 0.95846016 -102.16084282 0.95846016 -100.58349609 0.97827148 C-98.95908852 0.9926828 -98.95908852 0.9926828 -97.30186462 1.00738525 C-93.70899129 1.04046482 -90.11623617 1.08076304 -86.5234375 1.12109375 C-84.03765281 1.14538611 -81.5518637 1.1692301 -79.06607056 1.19264221 C-73.18350193 1.24913308 -67.3009939 1.31015872 -61.41849387 1.37336355 C-54.06549923 1.45209178 -46.7124391 1.52381118 -39.359375 1.59570312 C-26.23952276 1.72482891 -13.11974276 1.8602132 0 2 C0 1.34 0 0.68 0 0 Z " fill="#7EBFEB" transform="translate(131,25)"/>
<path d="M0 0 C1.42505859 0.00580078 1.42505859 0.00580078 2.87890625 0.01171875 C5.4375 0.3125 5.4375 0.3125 8.4375 2.3125 C8.73046875 5.3515625 8.73046875 5.3515625 8.625 8.9375 C8.59792969 10.12601563 8.57085937 11.31453125 8.54296875 12.5390625 C8.50816406 13.45429688 8.47335938 14.36953125 8.4375 15.3125 C6.1275 15.3125 3.8175 15.3125 1.4375 15.3125 C1.4375 12.3425 1.4375 9.3725 1.4375 6.3125 C0.4475 6.3125 -0.5425 6.3125 -1.5625 6.3125 C-1.73987025 9.50516453 -1.6292515 12.27987788 -0.5625 15.3125 C1.52361363 16.68705016 1.52361363 16.68705016 4 17.75 C6.4609375 19.109375 6.4609375 19.109375 8.4375 21.3125 C9.74115578 26.94765723 9.54232417 33.64398627 8.4375 39.3125 C7.7775 40.3025 7.1175 41.2925 6.4375 42.3125 C3.50390625 42.74609375 3.50390625 42.74609375 0 42.75 C-1.73056641 42.77900391 -1.73056641 42.77900391 -3.49609375 42.80859375 C-6.5625 42.3125 -6.5625 42.3125 -8.45703125 40.703125 C-9.91654439 37.54686338 -9.89011535 35.09052526 -9.8125 31.625 C-9.79703125 30.46613281 -9.7815625 29.30726563 -9.765625 28.11328125 C-9.5625 25.3125 -9.5625 25.3125 -8.5625 24.3125 C-5.5625 24.1875 -5.5625 24.1875 -2.5625 24.3125 C-1.5625 25.3125 -1.5625 25.3125 -1.46484375 27.81640625 C-1.47644531 28.82574219 -1.48804688 29.83507812 -1.5 30.875 C-1.50902344 31.88691406 -1.51804687 32.89882812 -1.52734375 33.94140625 C-1.53894531 34.72386719 -1.55054688 35.50632813 -1.5625 36.3125 C-0.5725 36.3125 0.4175 36.3125 1.4375 36.3125 C1.60810308 32.47734281 1.50221478 29.01607725 0.4375 25.3125 C-1.74139088 23.17543044 -3.8452298 21.86585452 -6.53125 20.43359375 C-8.5625 19.3125 -8.5625 19.3125 -9.5625 17.3125 C-9.73697814 15.00423998 -9.82961961 12.68940004 -9.875 10.375 C-9.91238281 9.12847656 -9.94976562 7.88195312 -9.98828125 6.59765625 C-9.5625 3.3125 -9.5625 3.3125 -7.890625 1.390625 C-5.08380158 0.09082087 -3.08638073 -0.05458905 0 0 Z " fill="#F7F6F7" transform="translate(43.5625,132.6875)"/>
<path d="M0 0 C1.08925781 -0.020625 2.17851563 -0.04125 3.30078125 -0.0625 C4.35394531 -0.06765625 5.40710938 -0.0728125 6.4921875 -0.078125 C7.93247314 -0.09214355 7.93247314 -0.09214355 9.40185547 -0.10644531 C13.57324162 0.43956722 16.1934784 2.3184784 19.125 5.25 C22.45050647 5.06524964 23.91720253 4.43384793 26.4296875 2.2109375 C31.51832819 -1.26556918 38.1177647 -0.15931054 44 0 C45.26070312 0.01804687 46.52140625 0.03609375 47.8203125 0.0546875 C50.92265614 0.10169271 54.0234338 0.16739324 57.125 0.25 C57.125 0.91 57.125 1.57 57.125 2.25 C57.785 2.25 58.445 2.25 59.125 2.25 C58.465 3.57 57.805 4.89 57.125 6.25 C56.135 6.25 55.145 6.25 54.125 6.25 C54.125 7.24 54.125 8.23 54.125 9.25 C45.71922444 9.36587396 37.31378276 9.45470398 28.90740585 9.50906086 C25.00390149 9.53515031 21.10094369 9.5705346 17.19775391 9.62719727 C13.43056116 9.68154313 9.66389392 9.71142545 5.89633942 9.72438622 C4.45936052 9.73362174 3.02241025 9.75165727 1.58565521 9.77865028 C-0.42731146 9.81496318 -2.44080747 9.81704255 -4.45410156 9.81762695 C-5.59993713 9.82873001 -6.74577271 9.83983307 -7.92633057 9.85127258 C-10.875 9.25 -10.875 9.25 -13.27630615 6.90202332 C-14.875 4.25 -14.875 4.25 -14.875 1.25 C-10.0312941 -0.36456863 -5.07239017 0.02384202 0 0 Z " fill="#ECEEF4" transform="translate(54.875,102.75)"/>
<path d="M0 0 C2.31 0 4.62 0 7 0 C6.86722656 0.66644531 6.73445313 1.33289063 6.59765625 2.01953125 C6.02518738 5.00723372 5.50376559 7.99996312 5 11 C4.77183594 12.29550781 4.77183594 12.29550781 4.5390625 13.6171875 C3.53617268 20.94942642 4.77253993 27.44394203 6.30859375 34.59375 C7 38 7 38 7 41 C4.69 41 2.38 41 0 41 C-0.12117188 39.92878906 -0.24234375 38.85757813 -0.3671875 37.75390625 C-0.53597601 36.35671248 -0.70527313 34.95958009 -0.875 33.5625 C-0.95363281 32.85544922 -1.03226563 32.14839844 -1.11328125 31.41992188 C-1.33927676 29.60326568 -1.66300727 27.79937478 -2 26 C-2.66 25.67 -3.32 25.34 -4 25 C-4 30.28 -4 35.56 -4 41 C-5.98 41 -7.96 41 -10 41 C-10 27.8 -10 14.6 -10 1 C-8.02 1 -6.04 1 -4 1 C-4 5.29 -4 9.58 -4 14 C-3.34 13.67 -2.68 13.34 -2 13 C-1.30662208 9.9600352 -1.30662208 9.9600352 -0.875 6.4375 C-0.70742187 5.23996094 -0.53984375 4.04242188 -0.3671875 2.80859375 C-0.24601562 1.88175781 -0.12484375 0.95492187 0 0 Z " fill="#FAF9FA" transform="translate(84,133)"/>
<path d="M0 0 C0.556875 0.7425 1.11375 1.485 1.6875 2.25 C5.61941213 6.9257874 8.95546874 9.69289286 15.13671875 10.31640625 C16.30847656 10.39761719 17.48023437 10.47882813 18.6875 10.5625 C19.86699219 10.64628906 21.04648438 10.73007813 22.26171875 10.81640625 C23.16535156 10.87699219 24.06898437 10.93757813 25 11 C25 11.33 25 11.66 25 12 C27.97 12.33 30.94 12.66 34 13 C34 13.33 34 13.66 34 14 C22.45 14 10.9 14 -1 14 C-1 13.67 -1 13.34 -1 13 C4.94 12.505 4.94 12.505 11 12 C6.92603882 9.96301941 5.18835552 9.73426027 0.76269531 9.68115234 C-0.49830994 9.66128265 -1.75931519 9.64141296 -3.05853271 9.62094116 C-4.42964503 9.6090657 -5.8007592 9.59740279 -7.171875 9.5859375 C-8.57864513 9.56722131 -9.98540409 9.54764755 -11.39215088 9.5272522 C-15.08772183 9.47597239 -18.78332917 9.43632466 -22.47906494 9.39910889 C-26.25306161 9.35904307 -30.02690749 9.30796252 -33.80078125 9.2578125 C-41.2004173 9.16110244 -48.60012643 9.07668213 -56 9 C-55.67 6.36 -55.34 3.72 -55 1 C-54.67 1.66 -54.34 2.32 -54 3 C-36.18 3 -18.36 3 0 3 C0 2.01 0 1.02 0 0 Z " fill="#69B6EA" transform="translate(58,54)"/>
<path d="M0 0 C1.13392433 -0.01354271 1.13392433 -0.01354271 2.29075623 -0.02735901 C3.88495982 -0.04179218 5.47922172 -0.05073089 7.07348633 -0.05444336 C9.46607423 -0.06625801 11.85600798 -0.11543615 14.24804688 -0.16601562 C24.12096054 -0.27001644 33.09821574 0.54765918 41.93359375 5.37109375 C42.42859375 6.85609375 42.42859375 6.85609375 42.93359375 8.37109375 C21.15359375 8.37109375 -0.62640625 8.37109375 -23.06640625 8.37109375 C-22.73640625 7.38109375 -22.40640625 6.39109375 -22.06640625 5.37109375 C-14.96905575 1.8224185 -7.95670115 0.06031794 0 0 Z " fill="#78BFEC" transform="translate(66.06640625,1.62890625)"/>
<path d="M0 0 C6.6 0 13.2 0 20 0 C18.02 2.97 18.02 2.97 16 6 C15.21802727 9.07935467 15.51892294 10.73936661 16 14 C19.87117899 16.85167002 24.45094986 18.68828228 28.8125 20.6875 C29.85180664 21.16799805 29.85180664 21.16799805 30.91210938 21.65820312 C32.60691223 22.44131893 34.30329664 23.22101041 36 24 C36 24.33 36 24.66 36 25 C28.41 25 20.82 25 13 25 C13 25.99 13 26.98 13 28 C8.94197178 26.32081591 6.96257433 24.20779309 5.19848633 20.16162109 C4.35955334 17.97524911 3.57793199 15.77563794 2.8125 13.5625 C2.53986328 12.81162109 2.26722656 12.06074219 1.98632812 11.28710938 C1.72916016 10.55427734 1.47199219 9.82144531 1.20703125 9.06640625 C0.9747583 8.40584229 0.74248535 7.74527832 0.50317383 7.06469727 C0 5 0 5 0 0 Z " fill="#64A7E1" transform="translate(2,87)"/>
<path d="M0 0 C0.99 1.485 0.99 1.485 2 3 C-30.01 3 -62.02 3 -95 3 C-95 1.68 -95 0.36 -95 -1 C-83.20430609 -1.17695326 -71.40851387 -1.34290996 -59.61246872 -1.49477577 C-54.13526958 -1.5656376 -48.65817716 -1.64030607 -43.18115234 -1.72363281 C-37.89688385 -1.80388761 -32.61256854 -1.87419704 -27.32807159 -1.93757248 C-25.31058109 -1.96352329 -23.29313363 -1.99307543 -21.27574921 -2.02626419 C-18.45306733 -2.07208987 -15.63050467 -2.10518182 -12.80761719 -2.13525391 C-11.97108109 -2.1517952 -11.13454498 -2.16833649 -10.2726593 -2.18537903 C-2.98984213 -2.23887566 -2.98984213 -2.23887566 0 0 Z " fill="#80C2EE" transform="translate(124,17)"/>
<path d="M0 0 C1.26092972 0.00037766 2.52185944 0.00075531 3.82099915 0.00114441 C5.18690998 0.02667371 6.55281062 0.05275362 7.91870117 0.0793457 C9.32401774 0.08867836 10.72935064 0.09579234 12.13468933 0.1007843 C15.82255451 0.11981923 19.50942543 0.16888725 23.19689941 0.2243042 C26.9640559 0.27557391 30.73137403 0.29831466 34.4987793 0.32348633 C41.88269473 0.37701158 49.26579269 0.46227913 56.64916992 0.56762695 C56.64916992 2.54762695 56.64916992 4.52762695 56.64916992 6.56762695 C51.31064198 6.61710005 45.97224779 6.65338121 40.63354492 6.67749023 C38.81776606 6.68754187 37.00200337 6.70118524 35.1862793 6.71850586 C32.57491057 6.74279102 29.96375605 6.75411843 27.35229492 6.76293945 C26.13645721 6.77842331 26.13645721 6.77842331 24.89605713 6.79421997 C20.91754285 6.79501026 18.08421537 6.60694857 14.64916992 4.56762695 C11.27693545 4.54483425 11.27693545 4.54483425 7.58666992 4.94262695 C1.25657693 5.48117691 -4.99898362 5.68647647 -11.35083008 5.56762695 C-7.67129907 1.25570367 -5.67646357 -0.05687839 0 0 Z " fill="#AAD0EE" transform="translate(93.350830078125,61.432373046875)"/>
<path d="M0 0 C-0.6013927 10.02321169 -3.66694271 20.87645864 -11 28 C-11.33 27.01 -11.66 26.02 -12 25 C-19.92 25 -27.84 25 -36 25 C-33.7511457 20.5022914 -33.7511457 20.5022914 -30.4453125 18.74609375 C-29.74792969 18.36646484 -29.05054687 17.98683594 -28.33203125 17.59570312 C-27.60371094 17.21349609 -26.87539062 16.83128906 -26.125 16.4375 C-19.81229948 13.11341082 -19.81229948 13.11341082 -14 9 C-14 9.66 -14 10.32 -14 11 C-10.37 11 -6.74 11 -3 11 C-3 7.7 -3 4.4 -3 1 C-1 0 -1 0 0 0 Z " fill="#71BAEA" transform="translate(150,87)"/>
<path d="M0 0 C6.51445205 -0.0505939 13.02885368 -0.08568856 19.54345703 -0.10986328 C21.76092421 -0.11993825 23.97837805 -0.13359859 26.19580078 -0.15087891 C29.37796312 -0.17506163 32.55995024 -0.18646797 35.7421875 -0.1953125 C37.23599442 -0.21079636 37.23599442 -0.21079636 38.75997925 -0.22659302 C40.14118454 -0.22681961 40.14118454 -0.22681961 41.55029297 -0.22705078 C42.3630368 -0.231492 43.17578064 -0.23593323 44.01315308 -0.24050903 C46 0 46 0 48 2 C48.125 4.625 48.125 4.625 48 7 C41.3247966 7.02526945 34.64960543 7.04283268 27.97436523 7.05493164 C25.70157409 7.05997325 23.4287862 7.06680637 21.15600586 7.07543945 C17.89696449 7.08751261 14.63796583 7.09322987 11.37890625 7.09765625 C10.35599991 7.10281754 9.33309357 7.10797882 8.27919006 7.11329651 C7.33829025 7.11337204 6.39739044 7.11344757 5.42797852 7.11352539 C4.59524918 7.115746 3.76251984 7.11796661 2.90455627 7.12025452 C1 7 1 7 0 6 C-0.04080783 4.00041636 -0.04254356 1.99954746 0 0 Z " fill="#CFE8F6" transform="translate(96,40)"/>
<path d="M0 0 C1.32 1.32 2.64 2.64 4 4 C2.45076195 5.54923805 0.96018622 5.16278162 -1.19677734 5.20532227 C-2.08795258 5.22526749 -2.97912781 5.24521271 -3.89730835 5.26576233 C-5.35192978 5.29083107 -5.35192978 5.29083107 -6.8359375 5.31640625 C-8.32137558 5.3475779 -8.32137558 5.3475779 -9.83682251 5.37937927 C-13.01614163 5.44498208 -16.19554717 5.50377217 -19.375 5.5625 C-21.51302974 5.60568108 -23.65105078 5.64929524 -25.7890625 5.69335938 C-40.89729885 6 -40.89729885 6 -45 6 C-45.99 5.01 -45.99 5.01 -47 4 C-49.85277554 3.80103719 -52.58667372 3.72175069 -55.4375 3.75 C-56.21416016 3.74226563 -56.99082031 3.73453125 -57.79101562 3.7265625 C-61.70052168 3.74003194 -63.67947032 3.78631355 -67 6 C-69.06913757 6.20254517 -69.06913757 6.20254517 -71.47143555 6.13525391 C-72.37214279 6.11508209 -73.27285004 6.09491028 -74.20085144 6.0741272 C-75.65410576 6.02583267 -75.65410576 6.02583267 -77.13671875 5.9765625 C-78.13129593 5.95153656 -79.12587311 5.92651062 -80.15058899 5.90072632 C-83.32990458 5.81849847 -86.5086016 5.7219191 -89.6875 5.625 C-91.84177154 5.56676333 -93.99606852 5.50945999 -96.15039062 5.453125 C-101.43393686 5.31291565 -106.71704615 5.16091863 -112 5 C-112.33 4.01 -112.66 3.02 -113 2 C-110.61500887 0.80750444 -109.20569514 0.89068707 -106.54550171 0.91770935 C-105.14042107 0.92826859 -105.14042107 0.92826859 -103.70695496 0.93904114 C-102.16084282 0.95846016 -102.16084282 0.95846016 -100.58349609 0.97827148 C-98.95908852 0.9926828 -98.95908852 0.9926828 -97.30186462 1.00738525 C-93.70899129 1.04046482 -90.11623617 1.08076304 -86.5234375 1.12109375 C-84.03765281 1.14538611 -81.5518637 1.1692301 -79.06607056 1.19264221 C-73.18350193 1.24913308 -67.3009939 1.31015872 -61.41849387 1.37336355 C-54.06549923 1.45209178 -46.7124391 1.52381118 -39.359375 1.59570312 C-26.23952276 1.72482891 -13.11974276 1.8602132 0 2 C0 1.34 0 0.68 0 0 Z " fill="#6EB8E9" transform="translate(131,25)"/>
<path d="M0 0 C1.13518806 0.01659227 1.13518806 0.01659227 2.29330921 0.03351974 C3.16409107 0.03643524 4.03487293 0.03935074 4.93204212 0.04235458 C5.88438236 0.06608643 6.8367226 0.08981827 7.81792164 0.11426926 C8.82297749 0.12343872 9.82803333 0.13260818 10.86354542 0.14205551 C14.19173181 0.17717919 17.51873699 0.24084707 20.84648609 0.30469894 C23.15146177 0.33459046 25.45646113 0.3627052 27.76147938 0.38911057 C33.83305509 0.46345381 39.90400866 0.56198789 45.9751482 0.66547775 C52.16839443 0.76679565 58.36192413 0.84535069 64.55547047 0.92579269 C76.71145664 1.08704525 88.86690716 1.27384237 101.02226734 1.47657394 C101.51726734 2.96157394 101.51726734 2.96157394 102.02226734 4.47657394 C66.71226734 4.47657394 31.40226734 4.47657394 -4.97773266 4.47657394 C-1.97773266 0.47657394 -1.97773266 0.47657394 0 0 Z " fill="#FEFEFE" transform="translate(27.97773265838623,20.523426055908203)"/>
<path d="M0 0 C0.33 0.99 0.66 1.98 1 3 C18.82 3 36.64 3 55 3 C55.33 2.34 55.66 1.68 56 1 C56.495 4.465 56.495 4.465 57 8 C36.87 8 16.74 8 -4 8 C-2.68 5.36 -1.36 2.72 0 0 Z " fill="#68B3E6" transform="translate(93,54)"/>
<path d="M0 0 C0.66 0 1.32 0 2 0 C2 0.66 2 1.32 2 2 C16.85 2 31.7 2 47 2 C44.44261315 7.11477371 44.44261315 7.11477371 42 9 C40.02024841 9.32952881 40.02024841 9.32952881 37.74389648 9.26464844 C36.46258095 9.23911896 36.46258095 9.23911896 35.15538025 9.21307373 C34.2365657 9.17885315 33.31775116 9.14463257 32.37109375 9.109375 C30.95293114 9.07327118 30.95293114 9.07327118 29.50611877 9.03643799 C27.50786185 8.98278244 25.50979068 8.92178133 23.51196289 8.85400391 C20.44636935 8.75030004 17.38079246 8.66807046 14.31445312 8.58984375 C12.37496428 8.53510564 10.43550913 8.47915718 8.49609375 8.421875 C7.11483559 8.38268951 7.11483559 8.38268951 5.70567322 8.3427124 C4.85461502 8.31308411 4.00355682 8.28345581 3.12670898 8.25292969 C2.37630844 8.22833679 1.6259079 8.2037439 0.85276794 8.17840576 C-1 8 -1 8 -3 7 C-1.125 1.125 -1.125 1.125 0 0 Z " fill="#CCE6F7" transform="translate(17,28)"/>
<path d="M0 0 C1.38120529 0.0001133 1.38120529 0.0001133 2.79031372 0.00022888 C4.28412064 0.00797081 4.28412064 0.00797081 5.80810547 0.01586914 C7.33538773 0.01799156 7.33538773 0.01799156 8.89352417 0.02015686 C12.15414332 0.02576639 15.41469448 0.03832051 18.67529297 0.05102539 C20.88232323 0.05603916 23.08935456 0.06060228 25.29638672 0.06469727 C30.71437877 0.07573891 36.13233101 0.09248634 41.55029297 0.11352539 C41.59301397 1.77964444 41.59093129 3.44735424 41.55029297 5.11352539 C40.55029297 6.11352539 40.55029297 6.11352539 38.64573669 6.23377991 C37.81300735 6.2315593 36.98027802 6.22933868 36.12231445 6.22705078 C35.18141464 6.22697525 34.24051483 6.22689972 33.27110291 6.2268219 C32.24819656 6.22166061 31.22529022 6.21649933 30.17138672 6.21118164 C29.12958755 6.20976669 28.08778839 6.20835175 27.01441956 6.20689392 C23.67218203 6.20127619 20.3300104 6.18872069 16.98779297 6.17602539 C14.72802831 6.17101267 12.4682626 6.16644937 10.20849609 6.16235352 C4.65573906 6.151301 -0.89697928 6.13454563 -6.44970703 6.11352539 C-6.44970703 4.46352539 -6.44970703 2.81352539 -6.44970703 1.11352539 C-4.07579867 -0.07342879 -2.64725752 -0.00723294 0 0 Z " fill="#DBEDF8" transform="translate(15.44970703125,39.886474609375)"/>
<path d="M0 0 C7.36894815 -0.05058145 14.73785178 -0.08568333 22.10693359 -0.10986328 C24.61541415 -0.11994011 27.12388292 -0.13360179 29.63232422 -0.15087891 C33.23147488 -0.17505337 36.83047067 -0.18646612 40.4296875 -0.1953125 C41.55680145 -0.20563507 42.68391541 -0.21595764 43.84518433 -0.22659302 C44.88611237 -0.22674408 45.92704041 -0.22689514 46.99951172 -0.22705078 C47.91884491 -0.231492 48.8381781 -0.23593323 49.78536987 -0.24050903 C52 0 52 0 54 2 C54 2.99 54 3.98 54 5 C36.18 5 18.36 5 0 5 C0 3.35 0 1.7 0 0 Z " fill="#ECF5FB" transform="translate(4,52)"/>
<path d="M0 0 C8.11052242 -0.06963245 16.22091911 -0.12287815 24.33166695 -0.15543652 C28.09817214 -0.17106606 31.86447221 -0.19225424 35.63085938 -0.22631836 C39.26835002 -0.25900935 42.90564385 -0.2768734 46.54327011 -0.28463173 C47.92830374 -0.29015785 49.31332709 -0.30094905 50.69827652 -0.31719017 C52.64395821 -0.33909128 54.58983961 -0.34022648 56.53564453 -0.34057617 C57.64150909 -0.34723801 58.74737366 -0.35389984 59.88674927 -0.36076355 C63.4577959 0.0530494 65.89524647 1.23147852 69 3 C69 3.33 69 3.66 69 4 C66.4374282 4.02710123 63.87514635 4.04688771 61.3125 4.0625 C60.2306543 4.07506836 60.2306543 4.07506836 59.12695312 4.08789062 C55.26667298 4.10551747 51.75980243 3.8435035 48 3 C45.30213351 2.83736266 42.70967054 2.90967765 40 3 C39.67 3.33 39.34 3.66 39 4 C36.1156618 4.08865208 33.25537842 4.11521296 30.37109375 4.09765625 C29.07474754 4.09553383 29.07474754 4.09553383 27.75221252 4.09336853 C24.98060708 4.08775239 22.2090812 4.07519719 19.4375 4.0625 C17.5631522 4.05748708 15.68880315 4.05292381 13.81445312 4.04882812 C9.20960456 4.03777772 4.60481579 4.0205023 0 4 C0 2.68 0 1.36 0 0 Z " fill="#EAF2F9" transform="translate(2,63)"/>
<path d="M0 0 C0.495 2.475 0.495 2.475 1 5 C-5.33541445 5.05070815 -11.67077657 5.08573696 -18.00634766 5.10986328 C-20.16164099 5.1199211 -22.31692068 5.13356899 -24.47216797 5.15087891 C-27.57002124 5.17513662 -30.66769409 5.18648532 -33.765625 5.1953125 C-35.21113739 5.21079636 -35.21113739 5.21079636 -36.68585205 5.22659302 C-37.58648376 5.22674408 -38.48711548 5.22689514 -39.41503906 5.22705078 C-40.20557678 5.231492 -40.9961145 5.23593323 -41.81060791 5.24050903 C-44.32138932 4.96469475 -45.89397945 4.39138351 -48 3 C-48.33 2.01 -48.66 1.02 -49 0 C-42.50399678 -0.16819265 -36.0078276 -0.32808921 -29.51147461 -0.48217773 C-27.30081542 -0.53559726 -25.09020154 -0.59092658 -22.87963867 -0.64819336 C-19.70501474 -0.73010535 -16.53029206 -0.80518211 -13.35546875 -0.87890625 C-12.36475876 -0.90594131 -11.37404877 -0.93297638 -10.35331726 -0.96083069 C-9.43258926 -0.98092697 -8.51186127 -1.00102325 -7.56323242 -1.02172852 C-6.7527092 -1.04171402 -5.94218597 -1.06169952 -5.10710144 -1.08229065 C-3 -1 -3 -1 0 0 Z " fill="#F0F7FC" transform="translate(137,30)"/>
<path d="M0 0 C0.33 0.66 0.66 1.32 1 2 C0.67 2.66 0.34 3.32 0 4 C6.37189886 4.1680197 12.74396347 4.32794807 19.11621094 4.48217773 C21.28520334 4.53563881 23.45415044 4.59097127 25.62304688 4.64819336 C28.73557769 4.72998976 31.8482079 4.80511587 34.9609375 4.87890625 C36.42193375 4.91945885 36.42193375 4.91945885 37.91244507 4.96083069 C38.81322784 4.98092697 39.71401062 5.00102325 40.64208984 5.02172852 C41.83455826 5.05170677 41.83455826 5.05170677 43.05111694 5.08229065 C45.08156501 5.12966846 45.08156501 5.12966846 47 4 C46.52433594 4.75023437 46.52433594 4.75023437 46.0390625 5.515625 C44.6351235 8.87241148 44.53774346 12.16286294 44.375 15.75 C44.31699219 16.79607422 44.31699219 16.79607422 44.2578125 17.86328125 C44.16401376 19.57510818 44.08093826 21.28751682 44 23 C42 20 42 20 43 9 C27.16 9.33 11.32 9.66 -5 10 C-3.96532992 5.8613197 -2.43050464 3.44974852 0 0 Z " fill="#69B6E9" transform="translate(14,31)"/>
<path d="M0 0 C12.87 0 25.74 0 39 0 C37.02 2.64 35.04 5.28 33 8 C32.505 7.01 32.505 7.01 32 6 C21.44 6 10.88 6 0 6 C0 4.02 0 2.04 0 0 Z " fill="#84C3ED" transform="translate(2,67)"/>
<path d="M0 0 C6.93 0 13.86 0 21 0 C21 1.32 21 2.64 21 4 C20.34 4 19.68 4 19 4 C19 7.3 19 10.6 19 14 C15.37 14 11.74 14 8 14 C7.4121875 12.39125 7.4121875 12.39125 6.8125 10.75 C5.27072201 7.07345249 3.17809536 5.40504513 0 3 C0 2.01 0 1.02 0 0 Z " fill="#71B7E8" transform="translate(128,84)"/>
<path d="M0 0 C16.83 0 33.66 0 51 0 C51 1.32 51 2.64 51 4 C33.84 4 16.68 4 -1 4 C-0.67 2.68 -0.34 1.36 0 0 Z " fill="#F8FBFD" transform="translate(96,52)"/>
<path d="M0 0 C0.33 0.66 0.66 1.32 1 2 C18.82 2 36.64 2 55 2 C55 2.33 55 2.66 55 3 C37.51 3 20.02 3 2 3 C2 4.32 2 5.64 2 7 C2.7553302 6.99555878 3.5106604 6.99111755 4.28887939 6.98654175 C11.41023953 6.94645289 18.53154487 6.91600946 25.65298843 6.89637566 C29.31411812 6.88594237 32.97515449 6.87179156 36.63623047 6.84912109 C40.16995917 6.82737636 43.70359816 6.81542795 47.23738861 6.81024551 C49.24042217 6.80475656 51.24341969 6.78914619 53.24639893 6.77340698 C54.46736267 6.77325592 55.68832642 6.77310486 56.94628906 6.77294922 C58.55845306 6.76628738 58.55845306 6.76628738 60.20318604 6.75949097 C63.03532686 7.0030379 64.55235588 7.64225009 67 9 C69.24133258 9.28693388 71.4944319 9.48966591 73.75 9.625 C74.92046875 9.69976562 76.0909375 9.77453125 77.296875 9.8515625 C78.18890625 9.90054688 79.0809375 9.94953125 80 10 C80 10.33 80 10.66 80 11 C82.97 11.33 85.94 11.66 89 12 C89 12.33 89 12.66 89 13 C77.45 13 65.9 13 54 13 C54 12.67 54 12.34 54 12 C59.94 11.505 59.94 11.505 66 11 C61.92603882 8.96301941 60.18835552 8.73426027 55.76269531 8.68115234 C54.50169006 8.66128265 53.24068481 8.64141296 51.94146729 8.62094116 C50.57035497 8.6090657 49.1992408 8.59740279 47.828125 8.5859375 C46.42135487 8.56722131 45.01459591 8.54764755 43.60784912 8.5272522 C39.91227817 8.47597239 36.21667083 8.43632466 32.52093506 8.39910889 C28.74693839 8.35904307 24.97309251 8.30796252 21.19921875 8.2578125 C13.7995827 8.16110244 6.39987357 8.07668213 -1 8 C-0.67 5.36 -0.34 2.72 0 0 Z " fill="#88C7ED" transform="translate(3,55)"/>
<path d="M0 0 C0.99 0.66 1.98 1.32 3 2 C3 2.66 3 3.32 3 4 C-28.02 4 -59.04 4 -91 4 C-88.40508975 1.40508975 -86.63754653 1.76408839 -83.10310364 1.75115967 C-82.27807846 1.75835022 -81.45305328 1.76554077 -80.60302734 1.77294922 C-79.73466751 1.77265717 -78.86630768 1.77236511 -77.97163391 1.77206421 C-75.09296782 1.77346083 -72.21455854 1.78903758 -69.3359375 1.8046875 C-67.3433954 1.80841645 -65.35085147 1.81126398 -63.35830688 1.81326294 C-58.10737061 1.82090868 -52.85654452 1.84056523 -47.60565186 1.8626709 C-42.25013724 1.88310909 -36.89460486 1.89226031 -31.5390625 1.90234375 C-21.02599319 1.92381025 -10.51300575 1.95795751 0 2 C0 1.34 0 0.68 0 0 Z " fill="#5CB1E8" transform="translate(121,15)"/>
<path d="M0 0 C19.8 0.495 19.8 0.495 40 1 C40 2.65 40 4.3 40 6 C35.25051037 6.26722789 30.50101355 6.50016276 25.74829102 6.7019043 C24.13293113 6.77524879 22.51796269 6.85783541 20.90356445 6.94995117 C18.57805806 7.08101605 16.25315347 7.17840652 13.92578125 7.26953125 C13.20787918 7.31721146 12.48997711 7.36489166 11.75032043 7.41401672 C7.76072463 7.53363757 6.2047532 7.16698303 3.06713867 4.6081543 C1 2 1 2 0 0 Z " fill="#6DB8EA" transform="translate(110,67)"/>
<path d="M0 0 C0 1.65 0 3.3 0 5 C-0.66 5 -1.32 5 -2 5 C-2 5.66 -2 6.32 -2 7 C-11.9 7 -21.8 7 -32 7 C-27 1 -27 1 -24.16918945 0.22705078 C-23.16073975 0.21657715 -22.15229004 0.20610352 -21.11328125 0.1953125 C-20.01048828 0.16953125 -18.90769531 0.14375 -17.77148438 0.1171875 C-16.05928711 0.12105469 -16.05928711 0.12105469 -14.3125 0.125 C-13.15943359 0.104375 -12.00636719 0.08375 -10.81835938 0.0625 C-7.2116833 0.00327013 -3.60698773 0 0 0 Z " fill="#FCFDFE" transform="translate(111,104)"/>
<path d="M0 0 C2.95857409 -0.05379226 5.91617721 -0.09357093 8.875 -0.125 C9.71675781 -0.14175781 10.55851562 -0.15851563 11.42578125 -0.17578125 C12.23144531 -0.18222656 13.03710938 -0.18867188 13.8671875 -0.1953125 C14.98262939 -0.21102295 14.98262939 -0.21102295 16.12060547 -0.22705078 C18 0 18 0 20 2 C19.9765625 4.6015625 19.9765625 4.6015625 19.625 7.625 C19.45871094 9.12933594 19.45871094 9.12933594 19.2890625 10.6640625 C19.14597656 11.82035156 19.14597656 11.82035156 19 13 C18.01 13.33 17.02 13.66 16 14 C16 9.71 16 5.42 16 1 C14.02 1 12.04 1 10 1 C10 14.2 10 27.4 10 41 C11.98 41 13.96 41 16 41 C16 35.72 16 30.44 16 25 C16.99 25.33 17.98 25.66 19 26 C19.95498418 30.7749209 20.24243031 35.15139376 20 40 C19.34 40.66 18.68 41.32 18 42 C15.03 42 12.06 42 9 42 C8.67 31.11 8.34 20.22 8 9 C7.67 9 7.34 9 7 9 C7 6.36 7 3.72 7 1 C5.02 1 3.04 1 1 1 C1 4.3 1 7.6 1 11 C0.67 11 0.34 11 0 11 C0 7.37 0 3.74 0 0 Z " fill="#CCC2CA" transform="translate(64,133)"/>
<path d="M0 0 C0.77633789 -0.00191345 1.55267578 -0.0038269 2.35253906 -0.00579834 C3.98633144 -0.00715326 5.62013484 -0.00350543 7.25390625 0.00488281 C9.74243551 0.01559245 12.23024297 0.00496419 14.71875 -0.0078125 C16.31250158 -0.00649078 17.90625271 -0.00392813 19.5 0 C20.60649902 -0.00607269 20.60649902 -0.00607269 21.73535156 -0.01226807 C26.11405094 0.02711506 29.67874304 0.65408579 33.75 2.265625 C33.75 2.925625 33.75 3.585625 33.75 4.265625 C17.91 4.265625 2.07 4.265625 -14.25 4.265625 C-14.25 3.605625 -14.25 2.945625 -14.25 2.265625 C-9.44789271 0.36479086 -5.10388948 -0.02801119 0 0 Z " fill="#EAF5FB" transform="translate(66.25,1.734375)"/>
<path d="M0 0 C3.3 0 6.6 0 10 0 C10 13.86 10 27.72 10 42 C7.69 42 5.38 42 3 42 C2.67 38.7 2.34 35.4 2 32 C1.67 34.97 1.34 37.94 1 41 C0.67 41 0.34 41 0 41 C-0.05413245 38.10391407 -0.09373641 35.20884805 -0.125 32.3125 C-0.15013672 31.08756836 -0.15013672 31.08756836 -0.17578125 29.83789062 C-0.2114802 25.42907071 -0.07580814 22.01268424 2 18 C2.66 18 3.32 18 4 18 C4 25.59 4 33.18 4 41 C5.65 41 7.3 41 9 41 C9 27.8 9 14.6 9 1 C6.69 1 4.38 1 2 1 C1.20734361 6.32212148 0.57021934 11.6496441 0 17 C-0.99 17.33 -1.98 17.66 -3 18 C-4.28317892 14.15046324 -4.06643637 11.05261865 -4 7 C-3.67 7 -3.34 7 -3 7 C-3 9.31 -3 11.62 -3 14 C-2.34 14 -1.68 14 -1 14 C-1.01160156 13.24074219 -1.02320312 12.48148438 -1.03515625 11.69921875 C-1.04417969 10.70535156 -1.05320312 9.71148437 -1.0625 8.6875 C-1.07410156 7.70136719 -1.08570312 6.71523437 -1.09765625 5.69921875 C-1 3 -1 3 0 0 Z " fill="#DBD4D9" transform="translate(108,133)"/>
<path d="M0 0 C13.2 0 26.4 0 40 0 C40 1.32 40 2.64 40 4 C35.28606679 4.04970487 30.5722886 4.085863 25.8581543 4.10986328 C24.25689026 4.11987623 22.65564429 4.1334906 21.05444336 4.15087891 C18.74328124 4.17533565 16.43236238 4.18653029 14.12109375 4.1953125 C13.0597245 4.21079636 13.0597245 4.21079636 11.97691345 4.22659302 C7.24165735 4.22764468 3.44683503 3.46788729 -1 2 C-0.67 1.34 -0.34 0.68 0 0 Z " fill="#EAF5FA" transform="translate(110,63)"/>
<path d="M0 0 C2 2 2 2 2 6 C-14.5 6 -31 6 -48 6 C-47.67 4.68 -47.34 3.36 -47 2 C-23.735 2.495 -23.735 2.495 0 3 C0 2.01 0 1.02 0 0 Z " fill="#65B3E6" transform="translate(144,44)"/>
<path d="M0 0 C15.18 0.33 30.36 0.66 46 1 C46 1.99 46 2.98 46 4 C30.82 4 15.64 4 0 4 C0 2.68 0 1.36 0 0 Z " fill="#FEFEFE" transform="translate(96,41)"/>
<path d="M0 0 C15.18 0 30.36 0 46 0 C45.67 0.99 45.34 1.98 45 3 C29.82 3 14.64 3 -1 3 C-0.67 2.01 -0.34 1.02 0 0 Z " fill="#FDFDFE" transform="translate(17,31)"/>
<path d="M0 0 C0.495 1.98 0.495 1.98 1 4 C-14.18 4 -29.36 4 -45 4 C-44.67 3.01 -44.34 2.02 -44 1 C-29.48 0.67 -14.96 0.34 0 0 Z " fill="#FEFEFE" transform="translate(55,41)"/>
<path d="M0 0 C10.89 0 21.78 0 33 0 C33 1.32 33 2.64 33 4 C22.77 4 12.54 4 2 4 C1.34 2.68 0.68 1.36 0 0 Z " fill="#E1F0FA" transform="translate(117,73)"/>
<path d="M0 0 C0.66 0 1.32 0 2 0 C2 0.66 2 1.32 2 2 C3.32 1.67 4.64 1.34 6 1 C6 1.33 6 1.66 6 2 C10.95 2.33 15.9 2.66 21 3 C21 3.33 21 3.66 21 4 C-16.95 4 -54.9 4 -94 4 C-94 3.67 -94 3.34 -94 3 C-84.76 3 -75.52 3 -66 3 C-65.67 2.34 -65.34 1.68 -65 1 C-65 1.66 -65 2.32 -65 3 C-43.55 3 -22.1 3 0 3 C0 2.01 0 1.02 0 0 Z " fill="#8D8BA5" transform="translate(109,109)"/>
<path d="M0 0 C0.66 0 1.32 0 2 0 C4 2 4 2 5 4 C4.72057545 5.67654729 4.39171753 7.34608154 4 9 C5.27617187 8.98839844 6.55234375 8.97679688 7.8671875 8.96484375 C9.53645687 8.95546583 11.20572783 8.94636563 12.875 8.9375 C14.13763672 8.92493164 14.13763672 8.92493164 15.42578125 8.91210938 C16.23144531 8.90888672 17.03710938 8.90566406 17.8671875 8.90234375 C18.61081543 8.89710693 19.35444336 8.89187012 20.12060547 8.88647461 C22 9 22 9 24 10 C24.33 9.34 24.66 8.68 25 8 C27.64 9.32 30.28 10.64 33 12 C33 12.33 33 12.66 33 13 C25.41 13 17.82 13 10 13 C10 13.99 10 14.98 10 16 C6.58332248 14.58620241 5.01271602 13.08330965 3 10 C2.05078125 7.421875 2.05078125 7.421875 1.3125 4.75 C1.06113281 3.85796875 0.80976562 2.9659375 0.55078125 2.046875 C0.36902344 1.37140625 0.18726563 0.6959375 0 0 Z " fill="#7BB2DB" transform="translate(5,99)"/>
<path d="M0 0 C8.58 0 17.16 0 26 0 C24.68 2.31 23.36 4.62 22 7 C21.67 6.34 21.34 5.68 21 5 C14.07 5 7.14 5 0 5 C0 3.35 0 1.7 0 0 Z " fill="#66B3E8" transform="translate(4,78)"/>
<path d="M0 0 C6.6 0 13.2 0 20 0 C18.02 2.97 18.02 2.97 16 6 C15.34 6 14.68 6 14 6 C13.67 6.66 13.34 7.32 13 8 C9.7 7.67 6.4 7.34 3 7 C2.67 8.32 2.34 9.64 2 11 C0.48940272 6.9402698 0 4.45389333 0 0 Z " fill="#75BCEA" transform="translate(2,87)"/>
<path d="M0 0 C3.3 0 6.6 0 10 0 C9.67 1.32 9.34 2.64 9 4 C9 3.01 9 2.02 9 1 C6.36 1 3.72 1 1 1 C1 14.2 1 27.4 1 41 C2.65 41 4.3 41 6 41 C6 33.41 6 25.82 6 18 C6.99 18.33 7.98 18.66 9 19 C9.33695862 21.72876308 9.66968429 24.45793163 10 27.1875 C10.14308594 28.34088867 10.14308594 28.34088867 10.2890625 29.51757812 C10.75192894 33.36928811 11.12467468 37.11170851 11 41 C11.99 41.33 12.98 41.66 14 42 C12.68 42 11.36 42 10 42 C9.34 38.04 8.68 34.08 8 30 C7.67 33.96 7.34 37.92 7 42 C4.69 42 2.38 42 0 42 C0 28.14 0 14.28 0 0 Z " fill="#D5CDD3" transform="translate(94,133)"/>
<path d="M0 0 C5.28 0 10.56 0 16 0 C16 0.66 16 1.32 16 2 C24.415 1.505 24.415 1.505 33 1 C32.67 1.99 32.34 2.98 32 4 C21.44 4 10.88 4 0 4 C0 2.68 0 1.36 0 0 Z " fill="#64B4E8" transform="translate(2,68)"/>
<path d="M0 0 C1.258125 0.185625 2.51625 0.37125 3.8125 0.5625 C4.4725 1.5525 5.1325 2.5425 5.8125 3.5625 C4.76320313 3.62824219 3.71390625 3.69398437 2.6328125 3.76171875 C-1.87818226 4.70727491 -3.24928926 6.01137791 -6.3125 9.375 C-12.49823871 16.06468867 -12.49823871 16.06468867 -16.1875 18.5625 C-17.1775 18.2325 -18.1675 17.9025 -19.1875 17.5625 C-18.23632866 16.3899869 -17.27632991 15.22462985 -16.3125 14.0625 C-15.77882813 13.4128125 -15.24515625 12.763125 -14.6953125 12.09375 C-13.94894531 11.33578125 -13.94894531 11.33578125 -13.1875 10.5625 C-12.5275 10.5625 -11.8675 10.5625 -11.1875 10.5625 C-10.960625 10.02625 -10.73375 9.49 -10.5 8.9375 C-5.66888298 0.19547872 -5.66888298 0.19547872 0 0 Z " fill="#061595" transform="translate(46.1875,64.4375)"/>
<path d="M0 0 C10.56 0 21.12 0 32 0 C31.67 0.99 31.34 1.98 31 3 C20.77 3 10.54 3 0 3 C0 2.01 0 1.02 0 0 Z " fill="#EDF6FC" transform="translate(2,73)"/>
<path d="M0 0 C0.33 0 0.66 0 1 0 C1 10.89 1 21.78 1 33 C0.67 33 0.34 33 0 33 C0 27.39 0 21.78 0 16 C-2.475 15.01 -2.475 15.01 -5 14 C-7.8125 12.4375 -7.8125 12.4375 -10 10 C-10.42065016 6.95554445 -10.29351416 4.05254729 -10 1 C-9.01 1 -8.02 1 -7 1 C-7 3.97 -7 6.94 -7 10 C-4.69 10 -2.38 10 0 10 C0 6.7 0 3.4 0 0 Z " fill="#A08F9B" transform="translate(52,138)"/>
<path d="M0 0 C7.26 0 14.52 0 22 0 C21.67 1.32 21.34 2.64 21 4 C13.74 4 6.48 4 -1 4 C-0.67 2.68 -0.34 1.36 0 0 Z " fill="#CFE6F6" transform="translate(121,105)"/>
<path d="M0 0 C0 0.66 0 1.32 0 2 C6.6 2 13.2 2 20 2 C20 3.65 20 5.3 20 7 C19.01 7.495 19.01 7.495 18 8 C18 7.01 18 6.02 18 5 C10.08 5 2.16 5 -6 5 C-3.5 0 -3.5 0 0 0 Z " fill="#73B2E2" transform="translate(120,107)"/>
<path d="M0 0 C5.94 0 11.88 0 18 0 C18 1.65 18 3.3 18 5 C10.74 5 3.48 5 -4 5 C-4 4.34 -4 3.68 -4 3 C2.6 3 9.2 3 16 3 C16 2.34 16 1.68 16 1 C15.01 1.495 15.01 1.495 14 2 C11.44842345 2.0716735 8.92527029 2.09308442 6.375 2.0625 C5.66859375 2.05798828 4.9621875 2.05347656 4.234375 2.04882812 C2.48954725 2.03703875 0.744763 2.01910324 -1 2 C-0.67 1.34 -0.34 0.68 0 0 Z " fill="#65B4E8" transform="translate(132,78)"/>
<path d="M0 0 C2.12038635 2.61514317 4.13091744 5.19637616 6 8 C4.02 8 2.04 8 0 8 C-0.495 7.01 -0.495 7.01 -1 6 C-18.16 5.67 -35.32 5.34 -53 5 C-53 4.67 -53 4.34 -53 4 C-35.51 4 -18.02 4 0 4 C0 2.68 0 1.36 0 0 Z " fill="#5CAFE7" transform="translate(58,54)"/>
<path d="M0 0 C0.33 0 0.66 0 1 0 C1 12.54 1 25.08 1 38 C0.01 38 -0.98 38 -2 38 C-1.88118872 33.5524087 -1.75690603 29.10501305 -1.62768555 24.65771484 C-1.58453646 23.14668874 -1.54284844 21.63562014 -1.50268555 20.12451172 C-1.44449437 17.94485706 -1.38094448 15.76541237 -1.31640625 13.5859375 C-1.27974854 12.2767334 -1.24309082 10.9675293 -1.20532227 9.61865234 C-1.01914318 6.33738432 -0.61323184 3.22546854 0 0 Z " fill="#857080" transform="translate(72,136)"/>
<path d="M0 0 C0.66 0 1.32 0 2 0 C2 7.59 2 15.18 2 23 C3.98 23 5.96 23 8 23 C8 23.33 8 23.66 8 24 C5.69 24 3.38 24 1 24 C0.67 20.7 0.34 17.4 0 14 C-0.33 16.97 -0.66 19.94 -1 23 C-1.33 23 -1.66 23 -2 23 C-2.05413245 20.10391407 -2.09373641 17.20884805 -2.125 14.3125 C-2.14175781 13.49587891 -2.15851563 12.67925781 -2.17578125 11.83789062 C-2.2114802 7.42907071 -2.07580814 4.01268424 0 0 Z " fill="#D1C9CF" transform="translate(110,151)"/>
<path d="M0 0 C1.27230469 0.47566406 1.27230469 0.47566406 2.5703125 0.9609375 C6.09477225 2.02871232 9.20670957 2.40041079 12.875 2.625 C14.60363281 2.73714844 14.60363281 2.73714844 16.3671875 2.8515625 C17.67042969 2.92503906 17.67042969 2.92503906 19 3 C19 3.33 19 3.66 19 4 C21.97 4.33 24.94 4.66 28 5 C28 5.33 28 5.66 28 6 C16.45 6 4.9 6 -7 6 C-7 5.67 -7 5.34 -7 5 C-1.06 4.505 -1.06 4.505 5 4 C3.35 3.01 1.7 2.02 0 1 C0 0.67 0 0.34 0 0 Z " fill="#6B80C9" transform="translate(64,62)"/>
<path d="M0 0 C1.10601562 -0.01224609 2.21203125 -0.02449219 3.3515625 -0.03710938 C4.41117188 -0.03904297 5.47078125 -0.04097656 6.5625 -0.04296875 C7.53316406 -0.04707764 8.50382812 -0.05118652 9.50390625 -0.05541992 C12 0.1875 12 0.1875 15 2.1875 C6.75 2.1875 -1.5 2.1875 -10 2.1875 C-10 2.8475 -10 3.5075 -10 4.1875 C-11.32 4.5175 -12.64 4.8475 -14 5.1875 C-14.33 3.8675 -14.66 2.5475 -15 1.1875 C-10.12328151 -0.43807283 -5.10618597 0.00297563 0 0 Z " fill="#C0C6E7" transform="translate(55,102.8125)"/>
<path d="M0 0 C7.26 0 14.52 0 22 0 C21.67 0.99 21.34 1.98 21 3 C14.07 3 7.14 3 0 3 C0 2.01 0 1.02 0 0 Z " fill="#E9F3F9" transform="translate(2,84)"/>
<path d="M0 0 C1.15733643 0.01571045 2.31467285 0.0314209 3.50708008 0.04760742 C4.76069336 0.05727539 6.01430664 0.06694336 7.3059082 0.0769043 C8.61624023 0.10204102 9.92657227 0.12717773 11.27661133 0.15307617 C12.61188296 0.1681265 13.9471707 0.18181431 15.2824707 0.1940918 C18.55175709 0.22949923 21.82023225 0.27888727 25.08911133 0.34057617 C24.75911133 1.00057617 24.42911133 1.66057617 24.08911133 2.34057617 C14.18911133 2.67057617 4.28911133 3.00057617 -5.91088867 3.34057617 C-2.91088867 0.34057617 -2.91088867 0.34057617 0 0 Z " fill="#00098F" transform="translate(87.910888671875,99.659423828125)"/>
<path d="M0 0 C6.93 0 13.86 0 21 0 C21 0.99 21 1.98 21 3 C17.87501937 3.02895976 14.7500731 3.04678483 11.625 3.0625 C10.73554688 3.07087891 9.84609375 3.07925781 8.9296875 3.08789062 C7.65351563 3.09272461 7.65351563 3.09272461 6.3515625 3.09765625 C5.17327881 3.10551147 5.17327881 3.10551147 3.97119141 3.11352539 C2 3 2 3 0 2 C0 1.34 0 0.68 0 0 Z " fill="#EBF5FB" transform="translate(128,84)"/>
<path d="M0 0 C0.33 0.66 0.66 1.32 1 2 C1.66 2 2.32 2 3 2 C3 2.99 3 3.98 3 5 C3.66 5 4.32 5 5 5 C5 4.01 5 3.02 5 2 C7.97 2 10.94 2 14 2 C14 2.66 14 3.32 14 4 C14.66 4.33 15.32 4.66 16 5 C15.34 5 14.68 5 14 5 C13.67 5.66 13.34 6.32 13 7 C9.7 6.67 6.4 6.34 3 6 C2.67 7.32 2.34 8.64 2 10 C0.68373308 6.38026598 0 3.90432869 0 0 Z " fill="#72ADD3" transform="translate(2,88)"/>
<path d="M0 0 C2.58361518 -0.05407567 5.16609255 -0.093707 7.75 -0.125 C8.84441406 -0.15013672 8.84441406 -0.15013672 9.9609375 -0.17578125 C13.8044624 -0.21072239 16.74606772 -0.17499684 20 2 C20 2.66 20 3.32 20 4 C13.4 3.67 6.8 3.34 0 3 C0 2.01 0 1.02 0 0 Z " fill="#DCEDF8" transform="translate(9,105)"/>
<path d="M0 0 C-0.49321666 8.22027761 -2.58752702 18.18786802 -8.16796875 24.421875 C-8.77253906 24.94265625 -9.37710938 25.4634375 -10 26 C-10 24.68 -10 23.36 -10 22 C-9.34 21.67 -8.68 21.34 -8 21 C-7.34786708 18.97536745 -7.34786708 18.97536745 -7 17 C-9.31 17 -11.62 17 -14 17 C-14 16.67 -14 16.34 -14 16 C-11.36 16 -8.72 16 -6 16 C-5.7834375 15.0409375 -5.7834375 15.0409375 -5.5625 14.0625 C-5 12 -5 12 -4 11 C-3.71778828 8.41977858 -3.55179803 5.83969815 -3.37890625 3.25 C-3.25386719 2.5075 -3.12882813 1.765 -3 1 C-1 0 -1 0 0 0 Z " fill="#5B8CAB" transform="translate(150,87)"/>
<path d="M0 0 C2.83236991 2.64354525 4.21844267 4.43688534 6 8 C-0.6 8 -7.2 8 -14 8 C-9.956851 5.9784255 -7.25501089 4.86467195 -2.8125 4.9375 C-0.9253125 4.9684375 -0.9253125 4.9684375 1 5 C0.67 3.35 0.34 1.7 0 0 Z " fill="#5AAEE6" transform="translate(137,31)"/>
<path d="M0 0 C1.4540625 0.0309375 1.4540625 0.0309375 2.9375 0.0625 C2.2775 0.7225 1.6175 1.3825 0.9375 2.0625 C-0.0525 2.0625 -1.0425 2.0625 -2.0625 2.0625 C-1.92220581 4.2087026 -1.77511836 6.35446218 -1.625 8.5 C-1.54378906 9.69496094 -1.46257813 10.88992187 -1.37890625 12.12109375 C-1.38593886 14.94820244 -1.38593886 14.94820244 -0.0625 16.0625 C1.95344582 16.29677778 3.975974 16.47586124 6 16.625 C7.10472656 16.70878906 8.20945312 16.79257813 9.34765625 16.87890625 C10.20230469 16.93949219 11.05695312 17.00007813 11.9375 17.0625 C11.9375 17.3925 11.9375 17.7225 11.9375 18.0625 C9.83445523 18.1705023 7.72983091 18.24808987 5.625 18.3125 C3.86736328 18.38210937 3.86736328 18.38210937 2.07421875 18.453125 C-1.0625 18.0625 -1.0625 18.0625 -2.96484375 16.46484375 C-4.40962159 13.30278549 -4.39011017 10.84029407 -4.3125 7.375 C-4.29703125 6.21613281 -4.2815625 5.05726563 -4.265625 3.86328125 C-3.98226621 -0.04380051 -3.9627946 0.08087336 0 0 Z " fill="#DBD5D9" transform="translate(38.0625,156.9375)"/>
<path d="M0 0 C0.98484375 0.02707031 1.9696875 0.05414063 2.984375 0.08203125 C3.73203125 0.11683594 4.4796875 0.15164062 5.25 0.1875 C5.25 0.5175 5.25 0.8475 5.25 1.1875 C4.20199219 1.26097656 4.20199219 1.26097656 3.1328125 1.3359375 C2.22273438 1.41070312 1.31265625 1.48546875 0.375 1.5625 C-0.52992187 1.63210937 -1.43484375 1.70171875 -2.3671875 1.7734375 C-4.92941903 1.98318132 -4.92941903 1.98318132 -6.75 4.1875 C-7.07077211 7.4412327 -7.07077211 7.4412327 -7 11.125 C-7.00773437 12.99478516 -7.00773437 12.99478516 -7.015625 14.90234375 C-7.00627355 18.32941449 -7.00627355 18.32941449 -4.75 21.1875 C-8.625 19.4375 -8.625 19.4375 -9.75 17.1875 C-9.92447814 14.87923998 -10.01711961 12.56440004 -10.0625 10.25 C-10.09988281 9.00347656 -10.13726562 7.75695312 -10.17578125 6.47265625 C-9.75 3.1875 -9.75 3.1875 -8.08984375 1.2578125 C-5.21170172 -0.05873327 -3.1533343 -0.11261908 0 0 Z " fill="#DFDADE" transform="translate(43.75,132.8125)"/>
<path d="M0 0 C12.54 0 25.08 0 38 0 C38 0.99 38 1.98 38 3 C37.37053467 2.93433838 36.74106934 2.86867676 36.0925293 2.80102539 C28.33784303 2.03906082 20.59855726 1.69353746 12.8125 1.4375 C11.57435547 1.39431641 10.33621094 1.35113281 9.06054688 1.30664062 C6.04044738 1.20169508 3.02028184 1.09953456 0 1 C0 0.67 0 0.34 0 0 Z " fill="#DAEDF8" transform="translate(16,63)"/>
<path d="M0 0 C1.15628906 0.12568359 1.15628906 0.12568359 2.3359375 0.25390625 C3.33882812 0.35574219 4.34171875 0.45757812 5.375 0.5625 C6.37273438 0.66691406 7.37046875 0.77132812 8.3984375 0.87890625 C10.984037 1.21144708 10.984037 1.21144708 13 0 C13.66 1.32 14.32 2.64 15 4 C15.33 3.34 15.66 2.68 16 2 C18 4 18 4 18 7 C11.30965634 6.55397709 5.97187878 3.92654458 0 1 C0 0.67 0 0.34 0 0 Z " fill="#283DA9" transform="translate(25,105)"/>
<path d="M0 0 C0 0.33 0 0.66 0 1 C-9.16899261 3.10435896 -17.54382689 4.47545004 -27 4 C-24.38506857 1.38506857 -23.01749412 1.68443008 -19.375 1.5 C-15.62070452 1.25720724 -12.17988906 0.91249208 -8.5625 -0.125 C-5.12797081 -0.96856857 -3.32554009 -1.03923128 0 0 Z " fill="#010F92" transform="translate(106,67)"/>
<path d="M0 0 C6.0546875 -0.1953125 6.0546875 -0.1953125 8 0 C8.66 0.66 9.32 1.32 10 2 C9.9765625 4.6015625 9.9765625 4.6015625 9.625 7.625 C9.45871094 9.12933594 9.45871094 9.12933594 9.2890625 10.6640625 C9.14597656 11.82035156 9.14597656 11.82035156 9 13 C8.01 13.33 7.02 13.66 6 14 C6 9.71 6 5.42 6 1 C4.02 1 2.04 1 0 1 C0 0.67 0 0.34 0 0 Z " fill="#D8D1D6" transform="translate(74,133)"/>
<path d="M0 0 C2.64 0 5.28 0 8 0 C10.29612756 13.6332574 10.29612756 13.6332574 10 20 C9.34 20 8.68 20 8 20 C6.73417781 16.13276369 6.8881235 12.26848738 6.9375 8.25 C6.94201172 7.55261719 6.94652344 6.85523438 6.95117188 6.13671875 C6.9628998 4.42444197 6.98083347 2.71220967 7 1 C5.02 1 3.04 1 1 1 C1 3.31 1 5.62 1 8 C0.67 8 0.34 8 0 8 C0 5.36 0 2.72 0 0 Z " fill="#C6BCC3" transform="translate(54,133)"/>
<path d="M0 0 C0.33 0.66 0.66 1.32 1 2 C0.67 2.66 0.34 3.32 0 4 C7.26 4.33 14.52 4.66 22 5 C22 5.33 22 5.66 22 6 C20.97060303 6.02187378 20.97060303 6.02187378 19.92041016 6.04418945 C16.82136099 6.11850151 13.72340945 6.21521582 10.625 6.3125 C9.54476563 6.33505859 8.46453125 6.35761719 7.3515625 6.38085938 C5.8046875 6.4340332 5.8046875 6.4340332 4.2265625 6.48828125 C2.79691162 6.52755737 2.79691162 6.52755737 1.33837891 6.56762695 C0.56671387 6.71031006 -0.20495117 6.85299316 -1 7 C-1.99 8.485 -1.99 8.485 -3 10 C-3.66 10 -4.32 10 -5 10 C-4.38545304 6.00544473 -2.29353263 3.25533664 0 0 Z " fill="#78A1BC" transform="translate(14,31)"/>
<path d="M0 0 C3.465 1.485 3.465 1.485 7 3 C7 3.33 7 3.66 7 4 C-1.89252296 4.26197285 -10.24996282 3.6039348 -19 2 C-19 1.67 -19 1.34 -19 1 C-16.20826945 0.97309896 -13.41679652 0.95320947 -10.625 0.9375 C-9.8309375 0.92912109 -9.036875 0.92074219 -8.21875 0.91210938 C-2.2265625 0.88671875 -2.2265625 0.88671875 0 2 C0 1.34 0 0.68 0 0 Z " fill="#89C8F1" transform="translate(29,107)"/>
<path d="M0 0 C3.63 0 7.26 0 11 0 C11 1.32 11 2.64 11 4 C7.37 4 3.74 4 0 4 C0 2.68 0 1.36 0 0 Z " fill="#DDEDF7" transform="translate(136,94)"/>
<path d="M0 0 C3.3 0 6.6 0 10 0 C10 4.62 10 9.24 10 14 C9.67 14 9.34 14 9 14 C8.67 12.35 8.34 10.7 8 9 C7.67 9 7.34 9 7 9 C7 6.36 7 3.72 7 1 C5.02 1 3.04 1 1 1 C1 4.3 1 7.6 1 11 C0.67 11 0.34 11 0 11 C0 7.37 0 3.74 0 0 Z " fill="#BBAFB8" transform="translate(64,133)"/>
<path d="M0 0 C3.3 0 6.6 0 10 0 C10.33 1.32 10.66 2.64 11 4 C7.37 4 3.74 4 0 4 C0 2.68 0 1.36 0 0 Z " fill="#DEECF7" transform="translate(5,94)"/>
<path d="M0 0 C1.485 0.99 1.485 0.99 3 2 C3.29296875 4.6015625 3.29296875 4.6015625 3.1875 7.625 C3.16042969 8.62789062 3.13335937 9.63078125 3.10546875 10.6640625 C3.07066406 11.43492187 3.03585938 12.20578125 3 13 C2.01 13 1.02 13 0 13 C-0.19397476 11.02145742 -0.38001321 9.0421352 -0.5625 7.0625 C-0.66691406 5.96035156 -0.77132812 4.85820312 -0.87890625 3.72265625 C-0.91886719 2.82417969 -0.95882812 1.92570313 -1 1 C-0.67 0.67 -0.34 0.34 0 0 Z " fill="#B2A5AE" transform="translate(42,156)"/>
<path d="M0 0 C0.66 1.32 1.32 2.64 2 4 C-2.51350747 7.52273754 -5.28341664 8.45732667 -11 8 C-7.38813161 5.25498003 -3.69604737 2.62987986 0 0 Z " fill="#60A2DE" transform="translate(134,97)"/>
<path d="M0 0 C8.91 0 17.82 0 27 0 C27 0.66 27 1.32 27 2 C27.66 2 28.32 2 29 2 C28.34 3.32 27.68 4.64 27 6 C26.67 6 26.34 6 26 6 C26 4.35 26 2.7 26 1 C17.42 1 8.84 1 0 1 C0 0.67 0 0.34 0 0 Z " fill="#9BA3D8" transform="translate(85,103)"/>
<path d="M0 0 C7.92 0 15.84 0 24 0 C24 0.99 24 1.98 24 3 C16.08 2.67 8.16 2.34 0 2 C0 1.34 0 0.68 0 0 Z " fill="#6FBAEB" transform="translate(4,79)"/>
<path d="M0 0 C0 0.99 0 1.98 0 3 C-0.33 3.33 -0.66 3.66 -1 4 C-1.23653523 6.52596259 -1.42173692 9.03107207 -1.5625 11.5625 C-1.60568359 12.27341797 -1.64886719 12.98433594 -1.69335938 13.71679688 C-1.79971777 15.47761912 -1.90038846 17.2387832 -2 19 C-4.42945561 15.35581659 -4.0828781 14.07076636 -3.625 9.8125 C-3.51414063 8.72582031 -3.40328125 7.63914062 -3.2890625 6.51953125 C-3.19367187 5.68808594 -3.09828125 4.85664062 -3 4 C-4.32 3.67 -5.64 3.34 -7 3 C-7 2.67 -7 2.34 -7 2 C-4.69 1.34 -2.38 0.68 0 0 Z " fill="#436DC2" transform="translate(60,35)"/>
<path d="M0 0 C1.23104155 3.68400584 0.90767252 6.91474976 0.5625 10.75 C0.46066406 11.92046875 0.35882813 13.0909375 0.25390625 14.296875 C0.17011719 15.18890625 0.08632812 16.0809375 0 17 C-0.99 17.33 -1.98 17.66 -3 18 C-4.28317892 14.15046324 -4.06643637 11.05261865 -4 7 C-3.67 7 -3.34 7 -3 7 C-3 9.31 -3 11.62 -3 14 C-2.34 14 -1.68 14 -1 14 C-1.01160156 13.24074219 -1.02320312 12.48148438 -1.03515625 11.69921875 C-1.04417969 10.70535156 -1.05320312 9.71148437 -1.0625 8.6875 C-1.07410156 7.70136719 -1.08570312 6.71523437 -1.09765625 5.69921875 C-1 3 -1 3 0 0 Z " fill="#C0B5BD" transform="translate(108,133)"/>
<path d="M0 0 C1.95387664 3.90775329 2.34762234 5.99687587 2.625 10.25 C2.69976562 11.32765625 2.77453125 12.4053125 2.8515625 13.515625 C2.92503906 14.74539062 2.92503906 14.74539062 3 16 C2.01 16 1.02 16 0 16 C0 10.72 0 5.44 0 0 Z " fill="#A495A1" transform="translate(101,159)"/>
<path d="M0 0 C3.63 0 7.26 0 11 0 C11 1.32 11 2.64 11 4 C8.36 4 5.72 4 3 4 C2.67 3.01 2.34 2.02 2 1 C1.34 0.67 0.68 0.34 0 0 Z " fill="#73BBE8" transform="translate(5,98)"/>
<path d="M0 0 C1.37562854 1.28965176 2.70766393 2.62689293 4 4 C4 4.66 4 5.32 4 6 C4.7425 6.28875 5.485 6.5775 6.25 6.875 C8.56739797 7.82302644 10.77917115 8.84845911 13 10 C13 10.33 13 10.66 13 11 C10.24430327 11.50103577 8.53229217 11.33282268 6.14453125 9.83984375 C3.14939349 7.42520692 1.27372535 5.83942442 0.0625 2.125 C0.041875 1.42375 0.02125 0.7225 0 0 Z " fill="#030C91" transform="translate(59,53)"/>
<path d="M0 0 C0.66 0 1.32 0 2 0 C1.49396008 2.16874252 1.00016187 3.99967627 0 6 C-0.23274209 8.87910588 -0.41972757 11.74146495 -0.5625 14.625 C-0.60568359 15.42679688 -0.64886719 16.22859375 -0.69335938 17.0546875 C-0.79951457 19.0362511 -0.90026855 21.01810271 -1 23 C-1.33 23 -1.66 23 -2 23 C-2.05413245 20.10391407 -2.09373641 17.20884805 -2.125 14.3125 C-2.14175781 13.49587891 -2.15851563 12.67925781 -2.17578125 11.83789062 C-2.2114802 7.42907071 -2.07580814 4.01268424 0 0 Z " fill="#E2DDE1" transform="translate(110,151)"/>
<path d="M0 0 C0.33 0 0.66 0 1 0 C1 4.95 1 9.9 1 15 C0.01 15.33 -0.98 15.66 -2 16 C-2 13.69 -2 11.38 -2 9 C-1.34 9 -0.68 9 0 9 C0 6.03 0 3.06 0 0 Z " fill="#E0DADE" transform="translate(64,144)"/>
<path d="M0 0 C4.35357983 -0.43535798 7.04099736 -0.38921814 10.4375 2.375 C13 5 13 5 13 7 C9.10082777 6.42234485 6.98808735 4.46517206 4 2 C2.68861096 1.29114106 1.36222983 0.60543548 0 0 Z " fill="#14249C" transform="translate(101,65)"/>
<path d="M0 0 C0.66 0.33 1.32 0.66 2 1 C1.79503906 1.59167969 1.59007812 2.18335938 1.37890625 2.79296875 C0.0002429 6.83660816 -1.31750847 10.76855249 -2 15 C-2.33 15 -2.66 15 -3 15 C-3.08107583 13.06318839 -3.13922475 11.1254066 -3.1875 9.1875 C-3.22230469 8.10855469 -3.25710937 7.02960937 -3.29296875 5.91796875 C-3 3 -3 3 -1.48828125 1.11328125 C-0.99714844 0.74589844 -0.50601563 0.37851562 0 0 Z " fill="#010E93" transform="translate(61,36)"/>
<path d="M0 0 C2.23611157 3.35416735 3.16284317 5.04889015 3.25 9 C3.27578125 9.70125 3.3015625 10.4025 3.328125 11.125 C3.21984375 11.74375 3.1115625 12.3625 3 13 C2.01 13.66 1.02 14.32 0 15 C0 10.05 0 5.1 0 0 Z " fill="#B4A6B1" transform="translate(81,160)"/>
<path d="M0 0 C0.66 0 1.32 0 2 0 C4.39821923 2.39821923 4.98174802 3.23341704 5.0625 6.625 C5.041875 7.40875 5.02125 8.1925 5 9 C5.66 9.33 6.32 9.66 7 10 C6.67 11.32 6.34 12.64 6 14 C3.52813545 11.03653214 2.33751639 8.45958311 1.3125 4.75 C1.06113281 3.85796875 0.80976562 2.9659375 0.55078125 2.046875 C0.36902344 1.37140625 0.18726563 0.6959375 0 0 Z " fill="#7398AE" transform="translate(5,99)"/>
<path d="M0 0 C0.66 0 1.32 0 2 0 C1.45773019 3.79588866 -0.20127563 5.47211993 -3 8 C-3.99 7.67 -4.98 7.34 -6 7 C-5.04882866 5.8274869 -4.08882991 4.66212985 -3.125 3.5 C-2.59132813 2.8503125 -2.05765625 2.200625 -1.5078125 1.53125 C-0.76144531 0.77328125 -0.76144531 0.77328125 0 0 Z " fill="#1B2DA2" transform="translate(33,75)"/>
<path d="M0 0 C2.12038635 2.61514317 4.13091744 5.19637616 6 8 C4.02 8 2.04 8 0 8 C-0.98120464 4.94736336 -0.98120464 3.05263664 0 0 Z " fill="#5B96D8" transform="translate(58,54)"/>
<path d="M0 0 C2.83236991 2.64354525 4.21844267 4.43688534 6 8 C1.71 7.34 -2.58 6.68 -7 6 C-7 5.67 -7 5.34 -7 5 C-4.36 5 -1.72 5 1 5 C0.67 3.35 0.34 1.7 0 0 Z " fill="#578098" transform="translate(137,31)"/>
<path d="M0 0 C3.96 0 7.92 0 12 0 C12 0.99 12 1.98 12 3 C10.18674449 2.88648483 8.37436643 2.75887039 6.5625 2.625 C5.04849609 2.52058594 5.04849609 2.52058594 3.50390625 2.4140625 C2.67761719 2.27742188 1.85132813 2.14078125 1 2 C0.67 1.34 0.34 0.68 0 0 Z " fill="#CDD7EF" transform="translate(42,63)"/>
<path d="M0 0 C5.94 0 11.88 0 18 0 C17.34 1.32 16.68 2.64 16 4 C15.34 3.34 14.68 2.68 14 2 C11.63490639 1.69940057 9.25558119 1.50484988 6.875 1.375 C4.95300781 1.26285156 4.95300781 1.26285156 2.9921875 1.1484375 C1.51105469 1.07496094 1.51105469 1.07496094 0 1 C0 0.67 0 0.34 0 0 Z " fill="#5D98DA" transform="translate(70,27)"/>
<path d="M0 0 C0.33 0.66 0.66 1.32 1 2 C3.97 2 6.94 2 10 2 C10 2.33 10 2.66 10 3 C7.36 3 4.72 3 2 3 C2 4.32 2 5.64 2 7 C1.01 7 0.02 7 -1 7 C-0.67 4.69 -0.34 2.38 0 0 Z " fill="#77AACA" transform="translate(3,55)"/>
<path d="M0 0 C2.875 -0.125 2.875 -0.125 6 0 C8 2 8 2 8 5 C8.99 5.33 9.98 5.66 11 6 C7.23834336 5.49166802 5.49964062 4.8405007 3 2 C2.01 1.34 1.02 0.68 0 0 Z " fill="#2C36A5" transform="translate(67,103)"/>
<path d="M0 0 C0.33 0.99 0.66 1.98 1 3 C0.67 3.66 0.34 4.32 0 5 C-2.31 5 -4.62 5 -7 5 C-7 4.34 -7 3.68 -7 3 C-4.69 2.01 -2.38 1.02 0 0 Z " fill="#6BBEEC" transform="translate(51,4)"/>
<path d="M0 0 C1.216875 0.144375 2.43375 0.28875 3.6875 0.4375 C3.6875 0.7675 3.6875 1.0975 3.6875 1.4375 C1.3775 1.4375 -0.9325 1.4375 -3.3125 1.4375 C-3.56 2.241875 -3.8075 3.04625 -4.0625 3.875 C-4.475 4.720625 -4.8875 5.56625 -5.3125 6.4375 C-7.390625 7.09765625 -7.390625 7.09765625 -9.3125 7.4375 C-5.33090181 -0.06628119 -5.33090181 -0.06628119 0 0 Z " fill="#2F3FA9" transform="translate(46.3125,64.5625)"/>
<path d="M0 0 C1.63001953 0.01353516 1.63001953 0.01353516 3.29296875 0.02734375 C4.12441406 0.03894531 4.95585938 0.05054688 5.8125 0.0625 C5.8125 0.3925 5.8125 0.7225 5.8125 1.0625 C5.10222656 1.12308594 4.39195313 1.18367188 3.66015625 1.24609375 C2.74105469 1.32988281 1.82195312 1.41367188 0.875 1.5 C-0.04152344 1.58121094 -0.95804688 1.66242188 -1.90234375 1.74609375 C-4.14909732 1.82294976 -4.14909732 1.82294976 -5.1875 3.0625 C-6.85367115 3.10313832 -8.52138095 3.105221 -10.1875 3.0625 C-8.19010785 -0.9322843 -3.93646808 -0.04232761 0 0 Z " fill="#F3F5FB" transform="translate(92.1875,63.9375)"/>
<path d="M0 0 C0.99 0.33 1.98 0.66 3 1 C3 4.63 3 8.26 3 12 C0.97649676 8.96474514 0.67875982 7.80573798 0.375 4.3125 C0.30023438 3.50425781 0.22546875 2.69601563 0.1484375 1.86328125 C0.09945312 1.24839844 0.05046875 0.63351563 0 0 Z " fill="#010F93" transform="translate(91,38)"/>
<path d="M0 0 C2.97595467 2.55081829 4.44002566 5.43434437 6 9 C6 9.99 6 10.98 6 12 C5.34 12 4.68 12 4 12 C3.3291288 10.3767313 2.66342971 8.75132422 2 7.125 C1.62875 6.22007813 1.2575 5.31515625 0.875 4.3828125 C0 2 0 2 0 0 Z " fill="#0B0B0C" transform="translate(143,40)"/>
<path d="M0 0 C0.33 0 0.66 0 1 0 C1 1.65 1 3.3 1 5 C-0.98 5.99 -0.98 5.99 -3 7 C-3.33 6.34 -3.66 5.68 -4 5 C-2.69254251 3.31295807 -1.35827971 1.64639965 0 0 Z " fill="#142DA1" transform="translate(21,88)"/>
<path d="M0 0 C1 2 1 2 0.22265625 4.3828125 C-0.16019531 5.28773437 -0.54304687 6.19265625 -0.9375 7.125 C-1.31777344 8.03507812 -1.69804688 8.94515625 -2.08984375 9.8828125 C-2.39019531 10.58148438 -2.69054687 11.28015625 -3 12 C-3.66 11.67 -4.32 11.34 -5 11 C-3.77472971 6.94718288 -2.30119506 3.55639236 0 0 Z " fill="#0C0D0D" transform="translate(8,40)"/>
<path d="M0 0 C1.485 0.99 1.485 0.99 3 2 C2.74438677 4.3431213 2.40729228 6.67843403 2 9 C1.01 9.495 1.01 9.495 0 10 C0 6.7 0 3.4 0 0 Z " fill="#B4A6B0" transform="translate(81,133)"/>
<path d="M0 0 C1.98 1.65 3.96 3.3 6 5 C5.67 5.66 5.34 6.32 5 7 C2.5 5.75 2.5 5.75 0 4 C0 2.68 0 1.36 0 0 Z " fill="#1F32A4" transform="translate(88,32)"/>
</svg>
