<svg width="20" height="18" viewBox="0 0 20 18" fill="none" xmlns="http://www.w3.org/2000/svg">
<path d="M10.3443 7.51638C10.5104 7.5328 10.6754 7.56112 10.8383 7.6013C11.3422 7.72563 11.8121 7.96044 12.214 8.28875C12.6159 8.61706 12.9398 9.03064 13.1622 9.49955C13.3351 9.86413 13.4433 10.2551 13.4829 10.6549L10.3443 7.51638ZM6.51637 11.3488C6.4569 10.7536 6.55123 10.1568 6.78557 9.61383L7.57254 10.4008C7.48344 10.7616 7.47555 11.1392 7.55129 11.5059C7.65004 11.984 7.88662 12.4228 8.23185 12.768C8.57707 13.1132 9.01582 13.3498 9.49395 13.4486C9.86068 13.5243 10.2383 13.5164 10.599 13.4273L11.386 14.2143C10.8431 14.4486 10.2462 14.543 9.65102 14.4835C8.84699 14.4031 8.09552 14.0471 7.52416 13.4757C6.95279 12.9043 6.59672 12.1529 6.51637 11.3488Z" fill="#011A99" stroke="#011A99"/>
<path d="M7.70835 4.88056C8.43795 4.64159 9.20517 4.5 9.99998 4.5C11.9639 4.5 13.758 5.36453 15.2169 6.41479L15.2169 6.41479C16.6791 7.4674 17.849 8.7361 18.5727 9.61651L18.5727 9.61653L18.5763 9.6208L18.6496 9.708C18.6497 9.70812 18.6498 9.70825 18.6499 9.70837C18.9718 10.0928 19.27 10.4724 19.27 11C19.27 11.5278 18.9716 11.9075 18.6496 12.292L18.6482 12.2938L18.5752 12.3818L18.5737 12.3836C18.0697 12.9969 17.5297 13.5796 16.9566 14.1285L16.2493 13.4212C16.893 12.8065 17.4928 12.1472 18.0443 11.448C18.0883 11.3924 18.1299 11.335 18.169 11.2759L18.3508 11.0011L18.17 10.7256C18.1308 10.666 18.0891 10.608 18.045 10.5519L18.0445 10.5513C17.9647 10.4501 17.8835 10.35 17.801 10.251C17.8007 10.2506 17.8004 10.2503 17.8001 10.2499L17.416 10.57C16.736 9.744 15.66 8.581 14.341 7.632C13.014 6.678 11.526 6 9.99998 6C9.44898 6 8.90298 6.088 8.36798 6.246L7.70835 4.88056ZM7.70835 4.88056L8.51636 5.68753L7.70835 4.88056ZM4.81678 7.64491C3.70314 8.5338 2.79743 9.52388 2.19825 10.2519C2.09935 10.3715 2.02034 10.4675 1.95277 10.5547L1.95277 10.5547L1.95104 10.557C1.90216 10.6208 1.85595 10.6836 1.82345 10.7358L1.65462 11.0072L1.82998 11.2744C1.86905 11.3339 1.91064 11.3917 1.95465 11.4477C2.02047 11.5316 2.0975 11.6262 2.19821 11.7481C2.89332 12.5924 4.00026 13.7895 5.36791 14.7738L5.36797 14.7739C6.73802 15.7596 8.32798 16.5 9.99998 16.5C11.0269 16.5 12.022 16.221 12.9513 15.7793L13.6975 16.525C12.5742 17.1062 11.3254 17.5 9.99998 17.5C8.03698 17.5 6.24195 16.6354 4.78297 15.5861C3.31992 14.5336 2.15101 13.265 1.42602 12.3842L1.42481 12.3828L1.35181 12.2948L1.35034 12.293C1.02834 11.9085 0.72998 11.5288 0.72998 11.001C0.72998 10.4732 1.02834 10.0935 1.35034 9.709L1.35034 9.709L1.35181 9.70723L1.42481 9.61923L1.42481 9.61924L1.42607 9.61771C2.03497 8.87776 2.95772 7.86411 4.1047 6.93283L4.81678 7.64491Z" fill="#011A99" stroke="#011A99"/>
<path d="M3 1L19 17L3 1Z" fill="#011A99"/>
<path d="M3 1L19 17" stroke="#011A99" stroke-width="2"/>
</svg>
