<svg width="97" height="97" viewBox="0 0 97 97" fill="none" xmlns="http://www.w3.org/2000/svg">
<path d="M12.125 20.125C12.125 16.3538 12.125 14.4681 13.2966 13.2966C14.4681 12.125 16.3538 12.125 20.125 12.125H76.875C80.6462 12.125 82.5319 12.125 83.7034 13.2966C84.875 14.4681 84.875 16.3538 84.875 20.125V76.875C84.875 80.6462 84.875 82.5319 83.7034 83.7034C82.5319 84.875 80.6462 84.875 76.875 84.875H20.125C16.3538 84.875 14.4681 84.875 13.2966 83.7034C12.125 82.5319 12.125 80.6462 12.125 76.875V20.125Z" stroke="#01073F" stroke-opacity="0.75" stroke-width="2"/>
<path fill-rule="evenodd" clip-rule="evenodd" d="M14.125 58.5828L14.8529 59.3107L32.9044 41.2593C33.8741 40.2896 34.5231 39.6443 35.0532 39.2507C35.5668 38.8693 35.7743 38.8734 35.8895 38.8956C36.0047 38.9177 36.1989 38.991 36.5341 39.5359C36.8801 40.0982 37.243 40.9384 37.7832 42.1988L46.4172 62.3448L46.444 62.4073L46.444 62.4074C46.6843 62.9684 46.9068 63.4877 47.1429 63.8714C47.3985 64.2869 47.7928 64.7502 48.4591 64.8785C49.1254 65.0068 49.6636 64.7231 50.0552 64.4323C50.4169 64.1637 50.8163 63.7642 51.2478 63.3325L51.2479 63.3325L51.2959 63.2844L62.5453 52.035C63.232 51.3483 63.6774 50.906 64.0484 50.6229C64.3963 50.3574 64.559 50.3279 64.6667 50.3279C64.7743 50.3279 64.937 50.3574 65.285 50.6229C65.656 50.906 66.1013 51.3483 66.788 52.035L80.1262 65.3732L81.5404 63.959L68.2022 50.6208L68.1556 50.5742C67.5288 49.9473 66.9888 49.4072 66.4981 49.0329C65.9723 48.6317 65.3874 48.3279 64.6667 48.3279C63.9459 48.3279 63.361 48.6317 62.8352 49.0329C62.3446 49.4072 61.8045 49.9473 61.1777 50.5742L61.1311 50.6208L49.8817 61.8702C49.3853 62.3666 49.0912 62.657 48.8628 62.8266L48.8528 62.834L48.8463 62.8234C48.6973 62.5812 48.532 62.2023 48.2555 61.557L39.6215 41.411L39.59 41.3376L39.59 41.3375C39.0897 40.1699 38.6702 39.1911 38.2375 38.4878C37.785 37.7523 37.1945 37.1101 36.2677 36.9316C35.3409 36.7532 34.5541 37.1301 33.8608 37.645C33.1978 38.1373 32.4449 38.8903 31.5467 39.7886L31.5466 39.7886L31.4902 39.845L14.125 57.2102V58.5828ZM48.7161 62.9192C48.7161 62.9191 48.7176 62.9184 48.7205 62.9175C48.7175 62.9188 48.716 62.9192 48.7161 62.9192ZM48.9447 62.9607C48.947 62.9626 48.9482 62.9638 48.9482 62.9639C48.9482 62.964 48.947 62.963 48.9447 62.9607Z" fill="#01073F" fill-opacity="0.75"/>
<circle cx="66.6875" cy="30.3125" r="6.0625" fill="#01073F" fill-opacity="0.75"/>
</svg>
